<svg xmlns="http://www.w3.org/2000/svg" version="1.1" xmlns:xlink="http://www.w3.org/1999/xlink" xmlns:svgjs="http://svgjs.dev/svgjs" width="2000" height="1607" viewBox="0 0 2000 1607"><g transform="matrix(1,0,0,1,0,0.5313875848552243)"><svg viewBox="0 0 448 360" data-background-color="#ffffff" preserveAspectRatio="xMidYMid meet" height="1607" width="2000" xmlns="http://www.w3.org/2000/svg" xmlns:xlink="http://www.w3.org/1999/xlink"><g id="tight-bounds" transform="matrix(1,0,0,1,0,-0.11904140046539169)"><svg viewBox="0 0 448 360" height="360" width="448"><g><svg></svg></g><g><svg viewBox="0 0 448 360" height="360" width="448"><g><path transform="translate(36.9151,-7.08178) scale(0.00624,0.00624)" d="M25167 8301c221 0 400 179 400 400 0 221-179 400-400 400h-3824l-2753 2753c-156 156-409 156-566 0-156-156-156-409 0-566l2188-2188h-6475c-1847 0-3071 431-3819 1301-760 885-1068 2254-1068 4110 0 11 0 22-1 33l34 5884 2356-2356c156-156 409-156 566 0 156 156 156 409 0 566l-2915 2915c33 5746 31 11443-2 17189 4087 4041 8117 8068 12157 12154h4070c221 0 400 179 400 400 0 221-179 400-400 400h-3279l4160 4208 1-1c1313 1313 2498 2062 3660 2151 1146 87 2316-474 3622-1779l4579-4579h-3323c-221 0-400-179-400-400 0-221 179-400 400-400h4123l2666-2666c156-156 409-156 566 0 156 156 156 409 0 566l-2101 2101h6475c1847 0 3071-431 3819-1301 760-885 1068-2254 1068-4110h2l-34-5917-2568 2568c-156 156-409 156-566 0-156-156-156-409 0-566l3127-3127c-33-5746-31-11443 2-17189-4087-4041-8117-8068-12157-12154h-4193c-221 0-400-179-400-400 0-221 179-400 400-400h3402l-4141-4189c-7-6-13-12-20-18-1313-1313-2498-2062-3660-2151-1146-87-2316 474-3622 1779l-4579 4579h3024zM13737 8301h7275l5144-5144c1483-1483 2856-2116 4247-2010 1374 104 2719 934 4167 2382 8 8 15 15 22 23l4695 4749h6977c2096 0 3515 524 4425 1583 898 1045 1261 2582 1261 4629 0 13-1 25-2 37l-36 6373 4559 4508 1-1c1448 1448 2278 2792 2382 4167 106 1391-528 2764-2010 4247l-4934 4934 38 6710h2c0 2047-364 3584-1261 4629-910 1059-2329 1583-4425 1583h-7275l-5144 5144c-1483 1483-2856 2116-4247 2010-1374-104-2719-934-4167-2382l1-1-4718-4772h-6977c-2096 0-3515-524-4425-1583-898-1045-1261-2582-1261-4629h2l37-6410-4537-4485c-8-7-16-14-23-22-1448-1448-2278-2792-2382-4167-106-1391 528-2764 2010-4247l4934-4934-38-6672c-1-12-2-25-2-37 0-2047 364-3584 1261-4629 910-1059 2329-1583 4425-1583zM8141 30000l-44-7653-4374 4374c-1305 1305-1866 2476-1779 3622 88 1162 838 2348 2151 3660 6 6 13 13 18 20l3983 3937 45-7961zM8882 39860l-32 5627h2c0 1857 308 3226 1068 4110 748 871 1972 1301 3819 1301h6186l-5380-5442-5662-5597zM46264 9101h-6186l5380 5442 5662 5597 32-5594c-1-11-1-22-1-33 0-1857-308-3226-1068-4110-748-871-1972-1301-3819-1301zM51906 22039l-45 7961 44 7653 4374-4374c1305-1305 1866-2476 1779-3622-88-1163-838-2348-2151-3660l1-1-4002-3956z" fill="#729343" fill-rule="nonzero" stroke="none" stroke-width="1" stroke-linecap="butt" stroke-linejoin="miter" stroke-miterlimit="10" stroke-dasharray="" stroke-dashoffset="0" font-family="none" font-weight="none" font-size="none" text-anchor="none" style="mix-blend-mode: normal" data-fill-palette-color="tertiary"></path></g><g transform="matrix(1,0,0,1,112,114.28140039844875)"><svg viewBox="0 0 224 131.4371992031025" height="131.4371992031025" width="224"><g><svg viewBox="0 0 224 131.4371992031025" height="131.4371992031025" width="224"><g transform="matrix(1,0,0,1,0,67.82179753728536)"><svg viewBox="0 0 224 63.615401665817124" height="63.615401665817124" width="224"><g id="textblocktransform"><svg viewBox="0 0 224 63.615401665817124" height="63.615401665817124" width="224" id="textblock"><g><svg viewBox="0 0 224 63.615401665817124" height="63.615401665817124" width="224"><g transform="matrix(1,0,0,1,0,0)"><svg width="224" viewBox="-2.4081499999999956 -14.600560000000002 146.23561302753748 41.530518856367664" height="63.615401665817124" data-palette-color="#ccd87a"><path d="M24.716 6.148v0c0.717 0.231 1.307 0.67 1.771 1.317 0.464 0.647 0.769 1.372 0.917 2.176 0.141 0.802 0.196 1.608 0.166 2.418-0.036 0.808-0.159 1.535-0.368 2.182v0c-0.611 1.701-1.587 3.043-2.926 4.027-1.331 0.979-2.857 1.496-4.577 1.55v0l-2.12 0.483-19.987-6.444 9.175-28.458 16.094 5.189c3.192 1.029 5.499 2.519 6.922 4.47v0c0.645 0.803 1.016 1.781 1.114 2.933 0.098 1.152-0.035 2.293-0.4 3.423v0c-0.464 1.44-1.152 2.497-2.062 3.17-0.91 0.673-2.15 1.194-3.719 1.564zM12.868 5.323v0l-2.547 4.999c-0.016 0.051 0.064 0.15 0.24 0.298 0.172 0.14 0.324 0.245 0.455 0.315v0l1.647 0.531c0.943 0.227 1.755 0.237 2.438 0.03 0.683-0.207 1.171-0.764 1.464-1.672v0c0.104-0.324 0.165-0.63 0.18-0.919 0.016-0.289 0.002-0.549-0.042-0.78-0.042-0.238-0.131-0.463-0.266-0.675-0.133-0.218-0.263-0.4-0.391-0.546-0.132-0.155-0.321-0.307-0.568-0.456-0.246-0.149-0.453-0.269-0.62-0.358-0.165-0.095-0.391-0.2-0.677-0.312-0.279-0.111-0.498-0.192-0.657-0.244-0.152-0.049-0.371-0.12-0.656-0.211zM15.453-4.13v0c-0.09 0.671-0.27 1.423-0.538 2.254v0l-0.135 0.418c-0.014 0.044-0.047 0.114-0.099 0.21-0.043 0.091-0.072 0.159-0.086 0.203v0c-0.018 0.057-0.052 0.183-0.101 0.378-0.042 0.196-0.084 0.358-0.125 0.485v0l-0.218 0.676c-0.051 0.159-0.029 0.274 0.067 0.347v0c0.368 0.119 0.662 0.206 0.882 0.263 0.213 0.055 0.53 0.125 0.95 0.212 0.414 0.084 0.768 0.104 1.064 0.059 0.295-0.045 0.608-0.126 0.94-0.243 0.338-0.115 0.631-0.329 0.879-0.641 0.246-0.306 0.444-0.694 0.595-1.164v0c0.205-0.635 0.158-1.217-0.14-1.747-0.296-0.537-0.692-0.948-1.189-1.234-0.5-0.294-1.09-0.551-1.769-0.77v0c-0.059 0.009-0.218-0.028-0.478-0.113v0l0.012-0.038c-0.249 0.011-0.419 0.159-0.511 0.445zM34.961 10.515l0.145-1.332 0.014-0.491c0.541-2.375 0.989-4.02 1.343-4.933v0c0.818-2.15 2.054-3.886 3.708-5.208v0l0.586-0.48c0.799-0.744 1.953-1.332 3.462-1.764v0l0.835 0.091c1.511-0.452 3.948-0.752 7.311-0.901v0c0.822 0.09 1.68 0.244 2.575 0.463 0.894 0.225 1.879 0.544 2.954 0.956 1.076 0.406 2.093 0.98 3.051 1.722 0.953 0.734 1.722 1.576 2.309 2.526v0l-0.067 0.616c2.082 3.286 2.918 6.807 2.507 10.565v0c-0.463 4.235-1.811 7.581-4.045 10.04v0l-1.005 1.007c-0.775 0.767-1.698 1.397-2.772 1.89-1.073 0.493-2.197 0.836-3.372 1.03-1.168 0.194-2.28 0.301-3.334 0.319-1.055 0.019-2.099-0.028-3.133-0.141v0c-1.518-0.166-2.946-0.506-4.285-1.021-1.339-0.508-2.567-1.213-3.682-2.113-1.116-0.9-2.069-1.96-2.862-3.18-0.792-1.22-1.387-2.653-1.783-4.299-0.397-1.646-0.55-3.433-0.46-5.362zM47.361 9.718l-0.107 0.974c-0.567 5.189 0.137 7.892 2.112 8.107v0c0.55 0.06 1.038 0.01 1.465-0.151 0.427-0.161 0.79-0.444 1.089-0.847 0.298-0.397 0.551-0.808 0.758-1.235 0.214-0.426 0.391-0.967 0.53-1.622 0.139-0.655 0.245-1.234 0.32-1.736 0.074-0.495 0.15-1.097 0.227-1.806v0l0.087-0.795c0.084-0.769 0.122-1.512 0.113-2.231-0.009-0.712-0.084-1.438-0.224-2.177-0.134-0.739-0.399-1.351-0.796-1.837-0.39-0.485-0.902-0.763-1.538-0.832v0c-2.213-0.242-3.559 1.821-4.036 6.188zM71.902 13.819l-0.124-1.335-0.085-0.484c0.054-2.436 0.164-4.136 0.328-5.102v0c0.371-2.271 1.234-4.219 2.589-5.845v0l0.478-0.587c0.634-0.889 1.646-1.697 3.038-2.422v0l0.836-0.078c1.39-0.745 3.718-1.528 6.983-2.348v0c0.823-0.077 1.695-0.098 2.615-0.063 0.921 0.041 1.95 0.157 3.086 0.346 1.135 0.182 2.246 0.541 3.334 1.075 1.08 0.529 2.003 1.199 2.768 2.012v0l0.058 0.617c2.698 2.802 4.222 6.085 4.573 9.849v0c0.395 4.242-0.255 7.791-1.951 10.647v0l-0.784 1.187c-0.605 0.907-1.384 1.709-2.337 2.407-0.953 0.698-1.985 1.26-3.097 1.685-1.105 0.424-2.173 0.751-3.203 0.981-1.03 0.23-2.062 0.393-3.097 0.489v0c-1.52 0.142-2.987 0.094-4.403-0.142-1.414-0.23-2.758-0.674-4.031-1.332-1.273-0.658-2.42-1.505-3.44-2.542-1.021-1.036-1.89-2.321-2.609-3.854-0.719-1.533-1.227-3.254-1.525-5.161zM83.891 10.553l0.091 0.976c0.484 5.198 1.715 7.704 3.693 7.52v0c0.551-0.051 1.019-0.199 1.405-0.443 0.386-0.243 0.685-0.593 0.897-1.047 0.213-0.448 0.378-0.902 0.496-1.362 0.125-0.46 0.189-1.025 0.193-1.695 0.005-0.67-0.007-1.258-0.034-1.765-0.026-0.5-0.073-1.105-0.138-1.815v0l-0.075-0.796c-0.072-0.77-0.184-1.506-0.336-2.209-0.152-0.696-0.371-1.392-0.656-2.088-0.279-0.697-0.662-1.244-1.147-1.641-0.479-0.397-1.037-0.566-1.675-0.506v0c-2.217 0.206-3.122 2.497-2.714 6.871zM123.769 19.685l-8.983 2.735c-0.385-0.35-0.645-0.598-0.781-0.745v0l-8.513-27.962 9.404-2.863c0.045-0.014 0.158-0.052 0.342-0.115 0.183-0.063 0.323-0.105 0.42-0.128 0.104-0.025 0.247-0.058 0.43-0.099 0.182-0.042 0.334-0.06 0.454-0.055 0.125-0.003 0.257 0.009 0.398 0.036 0.141 0.027 0.267 0.086 0.378 0.177 0.111 0.091 0.205 0.203 0.279 0.333v0l2.877 9.452c0.18-1.079 0.426-2.628 0.739-4.646 0.308-2.01 0.538-3.474 0.691-4.392v0l0.361-2.556 2.011-0.675c0.281-0.085 0.712-0.203 1.293-0.352 0.59-0.145 1.019-0.258 1.287-0.339v0l1.617-0.493c0.115-0.035 0.278-0.095 0.489-0.18 0.219-0.081 0.377-0.136 0.472-0.165v0l1.234-0.375c0.057-0.017 0.152-0.06 0.285-0.129v0c2.302-0.701 3.505-0.882 3.608-0.544v0c0.06 0.198 0.015 0.508-0.135 0.929v0c-0.342 1.233-0.867 3.459-1.573 6.678-0.715 3.214-1.336 5.661-1.863 7.341v0l12.691 11.816c0.004 0.013 0.018 0.061 0.044 0.143 0.027 0.089 0.045 0.147 0.052 0.172 0.01 0.032 0.021 0.081 0.035 0.147 0.013 0.066 0.018 0.116 0.015 0.152-0.001 0.042-0.007 0.093-0.017 0.152-0.006 0.05-0.022 0.101-0.048 0.15-0.022 0.042-0.049 0.092-0.08 0.15v0c-1.358 0.323-3.357 0.886-5.998 1.69v0c-0.351 0.107-0.894 0.279-1.63 0.517-0.736 0.238-1.279 0.41-1.63 0.517v0l-2.899 0.883-0.18-0.593c-0.346-0.313-1.066-0.916-2.161-1.809-1.094-0.893-1.908-1.607-2.439-2.143v0l-3.769-3.828 2.878 9.451c-0.025 0.628-0.72 1.149-2.085 1.565z" opacity="1" transform="matrix(1,0,0,1,0,0)" fill="#ccd87a" class="wordmark-text-0" data-fill-palette-color="primary" id="text-0"></path></svg></g></svg></g></svg></g></svg></g><g transform="matrix(1,0,0,1,85.223946325267,0)"><svg viewBox="0 0 53.552107349466006 63.615401665817124" height="63.615401665817124" width="53.552107349466006"><g><svg xmlns="http://www.w3.org/2000/svg" xmlns:xlink="http://www.w3.org/1999/xlink" version="1.1" x="0" y="0" viewBox="14.231735888197646 7.080893023922545 72.46060470276458 86.0771069760774" enable-background="new 0 0 100 100" xml:space="preserve" height="63.615401665817124" width="53.552107349466006" class="icon-icon-0" data-fill-palette-color="accent" id="icon-0"><g fill="#579d72" data-fill-palette-color="accent"><path fill="#579d72" d="M86.662 80.784L73.988 14.644l-0.054-0.216-1.551-4.663-0.226-1.16c-0.118-0.59-0.509-1.099-1.056-1.348-0.541-0.258-1.182-0.231-1.709 0.071-6.062 3.474-14.387 2.953-23.193 3.422-8.742 0.471-18.209 2.274-25.594 11.325-0.354 0.433-0.499 1.002-0.393 1.541l0.018 0.074c-0.167-0.022-0.313-0.062-0.488-0.067-0.39 0-0.814 0.045-1.252 0.129-3.755 0.728-4.354 4.218-4.247 5.198 0 0.269 0.018 0.452 0.031 0.524 0.126 0.825 0.831 1.418 1.648 1.418 0.085 0 0.166-0.006 0.257-0.02 0.915-0.144 1.536-1 1.394-1.912V28.95c0.103-0.584-0.004-1.591 1.581-1.921 0.216-0.04 0.404-0.058 0.588-0.058 0.582 0.009 0.921 0.196 1.212 0.444l0.417 2.143c-0.161-0.015-0.302-0.059-0.474-0.062-0.39 0-0.812 0.047-1.252 0.127-3.758 0.726-4.356 4.212-4.253 5.193 0 0.275 0.022 0.459 0.033 0.527 0.13 0.827 0.837 1.416 1.65 1.416 0.089 0 0.173-0.01 0.253-0.021 0.92-0.14 1.543-0.994 1.402-1.905v-0.017c0.1-0.582-0.018-1.588 1.578-1.909 0.218-0.049 0.405-0.063 0.588-0.063 0.578 0.012 0.905 0.197 1.197 0.434l0.417 2.143c-0.153-0.008-0.296-0.051-0.465-0.057-0.39 0-0.812 0.041-1.253 0.138-3.749 0.723-4.35 4.205-4.25 5.188 0 0.27 0.025 0.455 0.037 0.522 0.123 0.828 0.837 1.423 1.65 1.423 0.089 0 0.172-0.009 0.259-0.021 0.911-0.146 1.538-1.001 1.396-1.915v-0.009c0.1-0.581-0.019-1.587 1.578-1.912 0.218-0.051 0.399-0.065 0.582-0.065 0.564 0.006 0.896 0.188 1.184 0.422l0.422 2.169c-0.15-0.015-0.282-0.06-0.448-0.06-0.39 0-0.806 0.037-1.251 0.125-3.755 0.724-4.354 4.204-4.252 5.188 0 0.255 0.015 0.433 0.03 0.485 0.1 0.842 0.821 1.468 1.652 1.468 0.071 0 0.144-0.01 0.216-0.018 0.911-0.12 1.564-0.958 1.45-1.872-0.006 0-0.006-0.063-0.006-0.063 0.103-0.59-0.022-1.579 1.576-1.906 0.209-0.048 0.401-0.068 0.584-0.068 0.551 0.013 0.884 0.188 1.167 0.413l0.422 2.176c-0.145-0.015-0.276-0.052-0.434-0.059-0.395 0-0.817 0.04-1.256 0.132-3.745 0.72-4.345 4.203-4.247 5.18 0 0.275 0.021 0.467 0.031 0.527 0.129 0.832 0.843 1.422 1.651 1.422 0.087 0 0.17-0.006 0.259-0.015 0.911-0.141 1.538-1.001 1.396-1.912v-0.022c0.098-0.582-0.015-1.576 1.578-1.905 0.219-0.047 0.41-0.067 0.588-0.067 0.547 0.012 0.871 0.184 1.152 0.405l0.422 2.186c-0.141-0.019-0.267-0.056-0.416-0.06-0.393 0-0.809 0.037-1.252 0.129-3.755 0.72-4.354 4.208-4.253 5.185 0 0.275 0.024 0.467 0.036 0.528 0.121 0.83 0.84 1.424 1.646 1.424 0.083 0 0.17-0.008 0.255-0.022 0.917-0.138 1.545-1 1.407-1.906v-0.023c0.098-0.585-0.023-1.581 1.57-1.908 0.219-0.046 0.411-0.062 0.591-0.062 0.536 0.009 0.854 0.177 1.135 0.387l0.427 2.197c-0.141-0.009-0.261-0.054-0.406-0.054-0.396 0-0.813 0.045-1.25 0.125-3.766 0.726-4.354 4.223-4.259 5.196 0 0.258 0.014 0.431 0.026 0.487 0.114 0.843 0.825 1.451 1.655 1.451 0.072 0 0.15 0 0.227-0.009 0.909-0.127 1.558-0.967 1.438-1.881-0.005 0-0.005-0.049-0.005-0.049 0.098-0.582-0.014-1.587 1.579-1.914 0.218-0.051 0.404-0.062 0.588-0.062 0.521 0.012 0.837 0.166 1.112 0.369l0.429 2.202c-0.135-0.01-0.251-0.047-0.397-0.047-0.39 0-0.812 0.041-1.253 0.132-3.745 0.719-4.348 4.207-4.25 5.186 0 0.276 0.025 0.458 0.034 0.526 0.133 0.828 0.846 1.419 1.651 1.419 0.089 0 0.174-0.009 0.261-0.018 0.911-0.143 1.536-1.002 1.397-1.906 0-0.013 0-0.021 0-0.021 0.101-0.579-0.016-1.583 1.577-1.912 0.22-0.047 0.406-0.062 0.582-0.062 0.521 0.011 0.834 0.166 1.109 0.366l0.427 2.213c-0.124-0.01-0.23-0.044-0.373-0.047-0.392 0-0.812 0.031-1.25 0.124-3.756 0.719-4.359 4.207-4.255 5.188 0 0.275 0.027 0.461 0.033 0.53 0.123 0.828 0.832 1.421 1.649 1.421 0.085 0 0.165-0.008 0.254-0.021 0.918-0.142 1.545-0.999 1.407-1.904-0.011 0 0-0.026 0-0.026 0.099-0.576-0.021-1.579 1.571-1.906 0.224-0.048 0.406-0.063 0.59-0.063 0.505 0.009 0.817 0.157 1.087 0.345l0.427 2.234c-0.123-0.011-0.228-0.046-0.359-0.046-0.396 0-0.812 0.035-1.248 0.13-3.761 0.713-4.359 4.196-4.256 5.18 0 0.277 0.021 0.452 0.033 0.527 0.13 0.821 0.837 1.415 1.65 1.415 0.087 0 0.172-0.005 0.261-0.021 0.904-0.14 1.531-0.991 1.394-1.905v-0.017c0.101-0.588-0.009-1.582 1.579-1.904 0.213-0.055 0.404-0.066 0.587-0.066 0.491 0.004 0.798 0.147 1.069 0.336l0.431 2.233c-0.118-0.006-0.219-0.035-0.347-0.043-0.391 0-0.817 0.037-1.252 0.131-3.759 0.718-4.354 4.213-4.252 5.188 0 0.262 0.013 0.427 0.023 0.484l0.127 0.653c0.062 0.23 1.012 3.74 4.914 3.861 0.391 0 0.771-0.046 1.162-0.115 0.696-0.138 1.251-0.384 1.75-0.667 0.12 0.47 0.442 0.882 0.874 1.097 0.244 0.123 0.511 0.182 0.777 0.182 0.217 0 0.443-0.044 0.646-0.121 5.062-2.103 15.21-3.482 25.089-4.864 9.941-1.432 19.548-2.778 24.667-5.565C86.459 82.235 86.8 81.505 86.662 80.784zM80.51 66.812l-3.813 2.348-1.106-5.394 3.879-2.393L80.51 66.812zM78.714 57.443l-3.923 2.416-1.105-5.394 3.989-2.452L78.714 57.443zM76.926 48.083l-4.043 2.48-1.104-5.394 4.1-2.52L76.926 48.083zM74.08 33.278l1.049 5.434-4.152 2.554-1.102-5.396L74.08 33.278zM72.04 22.611l1.292 6.74-4.262 2.616-1.593-7.771L72.04 22.611zM31.396 89.255c-0.22 0.042-0.406 0.054-0.548 0.054-0.698-0.012-0.968-0.266-1.286-0.621-0.143-0.184-0.255-0.385-0.315-0.524-0.063-0.141-0.054-0.164-0.063-0.164l-0.061-0.332c0 0.011 0-0.01 0-0.01 0.102-0.578-0.014-1.588 1.569-1.911 0.224-0.046 0.414-0.066 0.596-0.066 0.483 0.007 0.791 0.15 1.057 0.327l0.469 2.428C32.558 88.795 32.137 89.125 31.396 89.255zM60.671 84.794c-8.009 1.133-16.122 2.193-22.062 3.817 5.94-4.792 12.19-5.342 18.794-5.372 2.024 0 4.07 0.06 6.107 0.06 5.185 0 9.332-0.86 14.066-3.895 0.64-0.413 0.973-1.187 0.823-1.943l-0.9-4.395 3.767-2.318 1.808 9.409C78.617 82.127 69.7 83.548 60.671 84.794z" data-fill-palette-color="accent"></path></g></svg></g></svg></g><g></g></svg></g></svg></g></svg></g><defs></defs></svg><rect width="448" height="360" fill="none" stroke="none" visibility="hidden"></rect></g></svg></g></svg>