<svg xmlns="http://www.w3.org/2000/svg" version="1.1" xmlns:xlink="http://www.w3.org/1999/xlink" xmlns:svgjs="http://svgjs.dev/svgjs" width="2000" height="1548" viewBox="0 0 2000 1548"><g transform="matrix(1,0,0,1,0.0905419827258811,0.6267206477732543)"><svg viewBox="0 0 319 247" data-background-color="#ffffff" preserveAspectRatio="xMidYMid meet" height="1548" width="2000" xmlns="http://www.w3.org/2000/svg" xmlns:xlink="http://www.w3.org/1999/xlink"><g id="tight-bounds" transform="matrix(1,0,0,1,-0.01444144624477417,-0.09999999999999432)"><svg viewBox="0 0 319.02888289248955 247.2" height="247.2" width="319.02888289248955"><g><svg viewBox="0 0 395.52 306.46925480082206" height="247.2" width="319.02888289248955"><g transform="matrix(1,0,0,1,0,227.62518032108494)"><svg viewBox="0 0 395.52 78.84407447973712" height="78.84407447973712" width="395.52"><g id="textblocktransform"><svg viewBox="0 0 395.52 78.84407447973712" height="78.84407447973712" width="395.52" id="textblock"><g><svg viewBox="0 0 395.52 78.84407447973712" height="78.84407447973712" width="395.52"><g transform="matrix(1,0,0,1,0,0)"><svg width="395.52" viewBox="2.49 -38.99 200.59 39.99" height="78.84407447973712" data-palette-color="#f5ba41"><path d="M14.04 1L14.04 1Q11.47 1 9.28-0.02 7.08-1.05 5.62-2.77 4.15-4.49 3.32-6.7 2.49-8.91 2.49-11.3L2.49-11.3Q2.49-14.72 3.49-17.43 4.49-20.14 6.27-21.86 8.06-23.58 10.44-24.49 12.82-25.39 15.65-25.39L15.65-25.39Q18.77-25.39 22.09-24.24L22.09-24.24 20.51-18.26 19.6-18.51Q19.87-21.07 19.46-22.9L19.46-22.9Q16.72-23.71 14.5-23.71L14.5-23.71Q10.21-23.71 8.25-20.91 6.3-18.12 6.3-12.65L6.3-12.65Q6.3-7.54 8.68-4.15 11.06-0.76 14.7-0.76L14.7-0.76Q19.21-0.76 22.05-3.59L22.05-3.59 23.05-2.54Q21.22-0.63 19.06 0.18 16.89 1 14.04 1ZM47.14-2.44L47.14-17.04Q47.14-19.09 46.75-20.4 46.36-21.7 45.69-22.45 45.02-23.19 44.13-23.49 43.23-23.78 42.23-23.78L42.23-23.78Q41.01-23.78 39.95-23.56 38.89-23.34 37.83-22.89 36.77-22.44 35.67-21.77 34.57-21.09 33.3-20.19L33.3-20.19 33.3-3.34Q33.3-2.56 33.42-2.09 33.54-1.61 33.93-1.29 34.32-0.98 35.03-0.73 35.74-0.49 36.89-0.2L36.89-0.2 36.69 0.39Q35.28 0.2 34.29 0.1 33.3 0 32.3 0 31.3 0 29.44 0.39L29.44 0.39 29.29 0.15Q29.78-0.56 29.78-2.44L29.78-2.44 29.78-31.69Q29.78-33.33 29.62-34.42 29.47-35.52 29.06-36.18 28.66-36.84 27.95-37.11 27.24-37.38 26.45-37.38 25.66-37.38 25.49-37.35L25.49-37.35 25.39-37.79Q29.37-38.99 32.79-38.99L32.79-38.99Q33.3-37.7 33.3-36.21L33.3-36.21 33.3-21.9Q34.98-23.05 36.36-23.79 37.74-24.54 38.95-24.98 40.16-25.42 41.25-25.59 42.33-25.76 43.45-25.76L43.45-25.76Q44.99-25.76 46.27-25.35 47.56-24.95 48.48-24.04 49.41-23.12 49.97-21.63 50.53-20.14 50.63-17.94L50.63-17.94 50.63-2.76Q50.63-2.17 50.91-1.78 51.19-1.39 51.65-1.12 52.1-0.85 52.68-0.67 53.27-0.49 53.9-0.29L53.9-0.29 53.68 0.29Q52.32 0 50.49 0 48.65 0 46.8 0.39L46.8 0.39 46.65 0.15Q47.14-0.56 47.14-2.44L47.14-2.44ZM58.64-11.89L58.64-11.89Q58.64-14.48 59.49-16.91 60.35-19.34 61.93-21.23 63.52-23.12 65.78-24.26 68.04-25.39 70.84-25.39L70.84-25.39Q72.6-25.39 74.16-24.79 75.73-24.19 76.89-22.94 78.05-21.68 78.72-19.71 79.39-17.75 79.39-15.04L79.39-15.04 78.44-14.16 62.5-14.16Q62.45-13.75 62.45-13.35 62.45-12.96 62.45-12.57L62.45-12.57Q62.45-9.91 63.07-7.74 63.69-5.57 64.75-4.02 65.82-2.47 67.26-1.61 68.7-0.76 70.31-0.76L70.31-0.76Q71.33-0.76 72.39-0.92 73.46-1.07 74.47-1.42 75.48-1.76 76.44-2.29 77.39-2.83 78.19-3.59L78.19-3.59 79.19-2.54Q77.27-0.63 75 0.18 72.72 1 69.75 1L69.75 1Q67.4 1 65.36 0.1 63.33-0.81 61.84-2.49 60.35-4.17 59.49-6.56 58.64-8.94 58.64-11.89ZM70.31-23.71L70.31-23.71Q66.52-23.71 64.77-21.74 63.01-19.78 62.64-16.09L62.64-16.09 76.24-16.09Q76.04-20.09 74.45-21.9 72.85-23.71 70.31-23.71ZM95.94 1L95.94 1Q93.38 1 91.18-0.02 88.98-1.05 87.52-2.77 86.05-4.49 85.22-6.7 84.39-8.91 84.39-11.3L84.39-11.3Q84.39-14.72 85.39-17.43 86.39-20.14 88.18-21.86 89.96-23.58 92.34-24.49 94.72-25.39 97.55-25.39L97.55-25.39Q100.68-25.39 104-24.24L104-24.24 102.41-18.26 101.51-18.51Q101.77-21.07 101.36-22.9L101.36-22.9Q98.63-23.71 96.4-23.71L96.4-23.71Q92.11-23.71 90.15-20.91 88.2-18.12 88.2-12.65L88.2-12.65Q88.2-7.54 90.58-4.15 92.96-0.76 96.6-0.76L96.6-0.76Q101.12-0.76 103.95-3.59L103.95-3.59 104.95-2.54Q103.12-0.63 100.96 0.18 98.8 1 95.94 1ZM111.68-2.44L111.68-31.69Q111.68-35.16 110.87-36.34 110.05-37.52 107.39-37.35L107.39-37.35 107.29-37.79Q111.32-38.99 114.69-38.99L114.69-38.99Q115.2-37.72 115.2-36.21L115.2-36.21 115.2-4.39Q115.2-2.47 116.1-1.54 117.01-0.61 119.3-0.2L119.3-0.2 119.11 0.39Q116.3 0 114.59 0L114.59 0Q113.25 0 111.34 0.39L111.34 0.39 111.2 0.15Q111.68-0.56 111.68-2.44L111.68-2.44ZM126.19-1.15L126.19-1.15 117.15-13.04 117.15-13.6 126.19-22.71Q126.87-23.46 125.67-23.85L125.67-23.85Q124.6-24.22 122.6-24.05L122.6-24.05 122.45-24.66Q125.58-25.29 129.7-25.39L129.7-25.39 130.09-24.66 119.94-14.5Q129.41-2.61 130.51-1.82 131.61-1.03 133.24-0.66L133.24-0.66 133.19 0.1Q129.19-0.2 127.14 0.39L127.14 0.39 126.8 0.2Q126.85-0.34 126.19-1.15ZM142.91-36.21L142.91-4.39Q142.91-2.47 143.81-1.54 144.71-0.61 147.01-0.2L147.01-0.2 146.81 0.39Q144.01 0 142.48 0 140.95 0 139.05 0.39L139.05 0.39 138.9 0.15Q139.39-0.56 139.39-2.44L139.39-2.44 139.39-31.69Q139.39-35.16 138.57-36.34 137.76-37.52 135.09-37.35L135.09-37.35 135-37.79Q139.03-38.99 142.39-38.99L142.39-38.99Q142.91-37.72 142.91-36.21L142.91-36.21ZM154.38-2.44L154.38-18.09Q154.38-21.56 153.56-22.74 152.74-23.93 150.08-23.75L150.08-23.75 149.99-24.19Q154.01-25.39 157.38-25.39L157.38-25.39Q157.9-24.12 157.9-22.61L157.9-22.61 157.9-4.39Q157.9-2.47 158.8-1.54 159.7-0.61 162-0.2L162-0.2 161.8 0.39Q158.99 0 157.47 0 155.94 0 154.04 0.39L154.04 0.39 153.89 0.15Q154.38-0.56 154.38-2.44L154.38-2.44ZM151.89-34.45L151.89-34.45Q154.21-35.79 157.14-36.69L157.14-36.69Q157.14-34.67 157.8-32.69L157.8-32.69 157.48-32.25Q155.16-32.1 152.65-30.96L152.65-30.96Q152.04-32.64 151.89-34.45ZM182.55-5.69L182.55-5.69Q182.55-3.93 181.84-2.66 181.13-1.39 179.95-0.57 178.77 0.24 177.19 0.62 175.62 1 173.88 1L173.88 1Q169.68 1 166-0.76L166-0.76Q166.46-2.37 166.93-3.75 167.39-5.13 167.88-6.3L167.88-6.3 168.59-6.05Q168.37-4.98 168.37-3.99 168.37-3 168.44-2.2L168.44-2.2Q169.2-1.81 169.86-1.53 170.51-1.25 171.17-1.06 171.83-0.88 172.59-0.79 173.35-0.71 174.35-0.71L174.35-0.71Q175.84-0.71 176.81-0.9 177.79-1.1 178.34-1.57 178.89-2.05 179.11-2.84 179.33-3.64 179.33-4.81L179.33-4.81Q179.33-5.71 179.02-6.51 178.72-7.3 177.97-8.08 177.23-8.86 176-9.7 174.76-10.55 172.93-11.55L172.93-11.55Q169.98-13.31 168.46-15.05 166.95-16.8 166.95-18.8L166.95-18.8Q166.95-20.39 167.61-21.62 168.27-22.85 169.4-23.69 170.54-24.54 172.05-24.96 173.57-25.39 175.25-25.39L175.25-25.39Q176.11-25.39 177.05-25.27 177.99-25.15 178.86-24.91 179.74-24.68 180.51-24.35 181.28-24.02 181.84-23.61L181.84-23.61Q181.06-20.41 179.94-17.99L179.94-17.99 179.23-18.26Q179.28-18.97 179.3-20.01 179.33-21.04 179.33-22.46L179.33-22.46Q177.74-23.71 174.93-23.71L174.93-23.71Q173.54-23.71 172.58-23.54 171.61-23.36 171.03-22.95 170.44-22.53 170.19-21.81 169.93-21.09 169.93-20L169.93-20Q169.93-19.19 170.15-18.49 170.37-17.8 170.93-17.13 171.49-16.46 172.46-15.76 173.42-15.06 174.93-14.26L174.93-14.26Q177.3-12.96 178.78-11.99 180.26-11.01 181.1-10.07 181.94-9.13 182.25-8.11 182.55-7.08 182.55-5.69ZM194.68-22.61L194.68-6.74Q194.68-3.42 195.41-2.16 196.15-0.9 197.78-0.9L197.78-0.9Q199.56-0.9 202.13-2.25L202.13-2.25 202.89-1.2Q198.86 1 196.29 1L196.29 1Q194.93 1 194.07 0.76 193.22 0.51 192.51-0.2 191.8-0.9 191.5-2.28 191.19-3.66 191.19-5.86L191.19-5.86 191.19-22.41 187.53-22.19 187.53-23.75Q189.46-24.17 191.19-24.29L191.19-24.29 191.19-27.76Q193.27-28.93 194.58-31.1L194.58-31.1 195.34-30.81Q194.93-29.83 194.8-28.6 194.68-27.37 194.68-24.44L194.68-24.44 203.08-24.44 203.08-23.58Q202.06-23.17 201.01-22.89 199.96-22.61 198.83-22.61L198.83-22.61 194.68-22.61Z" opacity="1" transform="matrix(1,0,0,1,0,0)" fill="#f5ba41" class="wordmark-text-0" data-fill-palette-color="primary" id="text-0"></path></svg></g></svg></g></svg></g></svg></g><g transform="matrix(1,0,0,1,102.56060356633594,0)"><svg viewBox="0 0 190.3987928673281 190.3987928673281" height="190.3987928673281" width="190.3987928673281"><g><svg></svg></g><g id="icon-0"><svg viewBox="0 0 190.3987928673281 190.3987928673281" height="190.3987928673281" width="190.3987928673281"><g><path d="M0 95.199c0-52.577 42.622-95.199 95.199-95.199 52.577 0 95.199 42.622 95.2 95.199 0 52.577-42.622 95.199-95.2 95.2-52.577 0-95.199-42.622-95.199-95.2zM95.199 183.289c48.65 0 88.089-39.439 88.09-88.09 0-48.65-39.439-88.089-88.09-88.089-48.65 0-88.089 39.439-88.089 88.089 0 48.65 39.439 88.089 88.089 88.09z" data-fill-palette-color="accent" fill="#fce44d" stroke="transparent"></path><ellipse rx="94.24740246932741" ry="94.24740246932741" cx="95.19939643366405" cy="95.19939643366405" fill="#fce44d" stroke="transparent" stroke-width="0" fill-opacity="1" data-fill-palette-color="accent"></ellipse></g><g transform="matrix(1,0,0,1,43.69876963258831,41.552910182543485)"><svg viewBox="0 0 103.00125360215148 107.29297250224113" height="107.29297250224113" width="103.00125360215148"><g><svg xmlns="http://www.w3.org/2000/svg" xmlns:xlink="http://www.w3.org/1999/xlink" version="1.1" x="0" y="0" viewBox="2 0 96 100" enable-background="new 0 0 100 100" xml:space="preserve" height="107.29297250224113" width="103.00125360215148" class="icon-cg-0" data-fill-palette-color="quaternary" id="cg-0"><rect x="23" y="80.4" width="50.9" height="2.7" fill="#ffffff" data-fill-palette-color="quaternary"></rect><rect x="23" y="60.5" width="50.9" height="2.7" fill="#ffffff" data-fill-palette-color="quaternary"></rect><rect x="9.5" y="19.2" width="6" height="6" fill="#ffffff" data-fill-palette-color="quaternary"></rect><rect x="9.5" y="39" width="6" height="6" fill="#ffffff" data-fill-palette-color="quaternary"></rect><rect x="9.5" y="58.9" width="6" height="6" fill="#ffffff" data-fill-palette-color="quaternary"></rect><rect x="9.5" y="78.8" width="6" height="6" fill="#ffffff" data-fill-palette-color="quaternary"></rect><path d="M80.7 55.3c-0.6 0-1.1 0-1.7-0.1V94H5V3h74v17.8c0.6-0.1 1.1-0.1 1.7-0.1 0.4 0 0.9 0 1.3 0.1V0H2v100h80V55.2C81.6 55.3 81.1 55.3 80.7 55.3z" fill="#ffffff" data-fill-palette-color="quaternary"></path><path d="M70.7 20.8H23v2.7h44.7C68.6 22.5 69.6 21.6 70.7 20.8z" fill="#ffffff" data-fill-palette-color="quaternary"></path><path d="M80.7 20.7c-9.6 0-17.3 7.8-17.3 17.3 0 9.6 7.8 17.3 17.3 17.3S98 47.6 98 38C98 28.4 90.3 20.7 80.7 20.7zM78.4 45.9L78.4 45.9 78.4 45.9l-8.4-8.4 3.5-3.5 5.7 5.7 9.6-9.6 2.7 2.7L78.4 45.9z" fill="#ffffff" data-fill-palette-color="quaternary"></path><path d="M62.2 40.7H23v2.7h39.7C62.5 42.5 62.3 41.6 62.2 40.7z" fill="#ffffff" data-fill-palette-color="quaternary"></path></svg></g></svg></g></svg></g></svg></g><g></g></svg></g><defs></defs></svg><rect width="319.02888289248955" height="247.2" fill="none" stroke="none" visibility="hidden"></rect></g></svg></g></svg>