<svg xmlns="http://www.w3.org/2000/svg" version="1.1" xmlns:xlink="http://www.w3.org/1999/xlink" xmlns:svgjs="http://svgjs.dev/svgjs" width="2000" height="1999" viewBox="0 0 2000 1999"><g transform="matrix(1,0,0,1,-0.431486880466764,-0.4312711370263287)"><svg viewBox="0 0 343 343" data-background-color="#ffffff" preserveAspectRatio="xMidYMid meet" height="1999" width="2000" xmlns="http://www.w3.org/2000/svg" xmlns:xlink="http://www.w3.org/1999/xlink"><g id="tight-bounds" transform="matrix(1,0,0,1,0.0740000000000407,0.07400000000001228)"><svg viewBox="0 0 342.85155851775386 342.85155851775386" height="342.85155851775386" width="342.85155851775386"><g><svg></svg></g><g><svg viewBox="0 0 342.85155851775386 342.85155851775386" height="342.85155851775386" width="342.85155851775386"><g><path d="M0 171.426c0-94.676 76.75-171.426 171.426-171.426 94.676 0 171.426 76.75 171.426 171.426 0 94.676-76.75 171.426-171.426 171.426-94.676 0-171.426-76.75-171.426-171.426zM171.426 337.436c91.685 0 166.01-74.325 166.01-166.01 0-91.685-74.325-166.01-166.01-166.01-91.685 0-166.01 74.325-166.01 166.01 0 91.685 74.325 166.01 166.01 166.01z" data-fill-palette-color="tertiary" fill="#336a86" stroke="transparent"></path><ellipse rx="164.56874808852186" ry="164.56874808852186" cx="171.42577925887693" cy="171.42577925887693" fill="#336a86" stroke="transparent" stroke-width="0" fill-opacity="1" data-fill-palette-color="tertiary"></ellipse></g><g transform="matrix(1,0,0,1,64.84655864529837,114.66554804778264)"><svg viewBox="0 0 213.1584412271571 113.52046242218859" height="113.52046242218859" width="213.1584412271571"><g><svg viewBox="0 0 213.1584412271571 113.52046242218859" height="113.52046242218859" width="213.1584412271571"><g><svg viewBox="0 0 213.1584412271571 113.52046242218859" height="113.52046242218859" width="213.1584412271571"><g transform="matrix(1,0,0,1,0,53.46884102874037)"><svg viewBox="0 0 213.1584412271571 60.05162139344822" height="60.05162139344822" width="213.1584412271571"><g id="textblocktransform"><svg viewBox="0 0 213.1584412271571 60.05162139344822" height="60.05162139344822" width="213.1584412271571" id="textblock"><g><svg viewBox="0 0 213.1584412271571 60.05162139344822" height="60.05162139344822" width="213.1584412271571"><g transform="matrix(1,0,0,1,0,0)"><svg width="213.1584412271571" viewBox="0.1 -34.99 125.82000000000001 35.45" height="60.05162139344822" data-palette-color="#ffffff"><path d="M20.04-24.19L20.04-24.19 17.43-24.29 14.72-24.29 14.72 0 4.22 0 4.25-24.29 3.86-24.29 1.54-24.19Q0.1-24.19 0.1-25.18 0.1-26.17 1.42-26.17L1.42-26.17 4.32-26.07Q4.83-30.49 8.25-32.84L8.25-32.84Q11.38-34.99 16.43-34.99L16.43-34.99Q21.17-34.99 22.95-33.11L22.95-33.11Q23.44-32.59 23.44-32.13L23.44-32.13Q23.44-31.05 22.34-31.05L22.34-31.05Q21.8-31.05 21.29-31.42L21.29-31.42 20.41-32.03Q18.99-33.08 17.36-33.18L17.36-33.18Q16.92-33.2 16.44-33.2 15.97-33.2 15.55-33.15 15.14-33.11 14.72-33.06L14.72-33.06 14.72-26.07 16.85-26.07 20.12-26.17Q21.44-26.17 21.44-25.18 21.44-24.19 20.04-24.19ZM24.61 0L24.61-34.55 35.1-34.55 35.1 0 24.61 0ZM65.74-5.93L65.74-5.93Q66.69-5.93 66.69-5.05L66.69-5.05Q66.69-4.39 65.84-3.49L65.84-3.49Q61.98 0.46 55.27 0.46L55.27 0.46Q49.24 0.46 45.11-3.17L45.11-3.17Q40.84-6.96 40.84-12.74L40.84-12.74Q40.84-18.65 44.7-22.46L44.7-22.46Q48.77-26.51 55.54-26.51L55.54-26.51Q60.96-26.51 64.64-23.22L64.64-23.22Q68.62-19.68 68.62-13.92L68.62-13.92Q68.62-13.09 68.57-12.16L68.57-12.16 52.46-12.16 52.46-1.68Q54.12-1.34 56.2-1.34L56.2-1.34Q60.59-1.34 63.69-4.25L63.69-4.25Q64.33-4.88 64.59-5.25L64.59-5.25Q65.16-5.93 65.74-5.93ZM59.22-13.94L59.22-24.27Q57.64-24.73 55.63-24.73 53.63-24.73 52.46-24.46L52.46-24.46 52.46-13.94 59.22-13.94ZM97.48-5.93L97.48-5.93Q98.43-5.93 98.43-5.05L98.43-5.05Q98.43-4.39 97.58-3.49L97.58-3.49Q93.72 0.46 87 0.46L87 0.46Q80.97 0.46 76.85-3.17L76.85-3.17Q72.58-6.96 72.58-12.74L72.58-12.74Q72.58-18.65 76.43-22.46L76.43-22.46Q80.51-26.51 87.27-26.51L87.27-26.51Q92.69-26.51 96.38-23.22L96.38-23.22Q100.36-19.68 100.36-13.92L100.36-13.92Q100.36-13.09 100.31-12.16L100.31-12.16 84.2-12.16 84.2-1.68Q85.86-1.34 87.93-1.34L87.93-1.34Q92.33-1.34 95.43-4.25L95.43-4.25Q96.06-4.88 96.33-5.25L96.33-5.25Q96.89-5.93 97.48-5.93ZM90.96-13.94L90.96-24.27Q89.37-24.73 87.37-24.73 85.37-24.73 84.2-24.46L84.2-24.46 84.2-13.94 90.96-13.94ZM116.59 0.46L116.59 0.46Q107.02 0.46 107.02-8.28L107.02-8.28 107-24.29 104.19-24.17Q102.87-24.17 102.87-25.17 102.87-26.17 104.29-26.17L104.29-26.17 106.63-26.07 107-26.07 107-29.86 117.47-34.55 117.47-26.07 120.74-26.07 123.06-26.17Q124.5-26.17 124.5-25.15L124.5-25.15Q124.5-24.68 124.1-24.43 123.7-24.17 123.18-24.17L123.18-24.17 120.16-24.29 117.47-24.29 117.47-1.34Q120.33-1.39 122.23-2.98L122.23-2.98Q123.13-3.66 123.51-4.74 123.89-5.81 124.2-6.12 124.5-6.42 124.92-6.42L124.92-6.42Q125.33-6.42 125.62-6.09 125.92-5.76 125.92-5.31 125.92-4.86 125.67-4.31 125.43-3.76 124.94-3.15L124.94-3.15Q123.84-1.78 122.4-0.98L122.4-0.98Q119.79 0.46 116.59 0.46Z" opacity="1" transform="matrix(1,0,0,1,0,0)" fill="#ffffff" class="wordmark-text-0" data-fill-palette-color="quaternary" id="text-0"></path></svg></g></svg></g></svg></g></svg></g><g transform="matrix(1,0,0,1,40.713262274387006,0)"><svg viewBox="0 0 131.7319166783831 39.292094456660685" height="39.292094456660685" width="131.7319166783831"><g><svg xmlns="http://www.w3.org/2000/svg" xmlns:xlink="http://www.w3.org/1999/xlink" version="1.1" x="0" y="0" viewBox="-249.80000000000004 383.8999999999999 63.70000000000002 19.000000000000057" enable-background="new -269.1 347.2 100 100" xml:space="preserve" height="39.292094456660685" width="131.7319166783831" class="icon-icon-0" data-fill-palette-color="quaternary" id="icon-0"><path d="M-188.3 395.2l0.4-1.8h-13.2l-10.7-4.1-1.1-1.2 1.2-1v-0.6h-15.9l-0.8 0.7c0 0-1.2-1.6-2.9-1.7 0-0.7 0-1.6 0-1.6h-1.8v1.6h-1.4l0-1.6h-2.9l1.6 1.7v1.8h1.5l1.8 2c0 0-0.7 0-2.5 0-3 0-4.2 1.5-4.2 1.5h-2.9l-0.4 1.6h8.5l-3.3 2.9h-5.9l-0.5 1.8-3.2 2.8h-2.9v1.3l2.9 1.6h49.7c1.9 0 3.3-0.7 4.3-1.5 2.1-1.8 5.7-5 5.7-5h0.8l0.3-1L-188.3 395.2-188.3 395.2zM-188.8 394.1l-0.3 1.1h-1.8l0.3-1.1H-188.8zM-193.8 394.1l-0.3 1.1h-1.9l0.3-1.1H-193.8zM-208.8 392.4v1.8h-2.1v-1.8H-208.8zM-211.8 392.4v1.8h-2.2v-1.8H-211.8zM-224.4 392.4v1.8h-2.2v-1.8H-224.4zM-219.6 389.3l-1-1.1h2.2l1 1.1H-219.6zM-220.7 389.3h-2.3l-1-1.1h2.3L-220.7 389.3zM-223.5 392.4h2.3v1.8h-2.3V392.4zM-220.2 392.4h2.3v1.8h-2.3V392.4zM-217 392.4h2.1v1.8h-2.1V392.4zM-213.8 389.3h-2.4l-1-1.1h2.4L-213.8 389.3zM-225.2 388.1l1 1.1h-2.5l-1-1.1L-225.2 388.1-225.2 388.1zM-229.1 392.4h1.6v1.8h-3.7L-229.1 392.4zM-207.8 394.1v-1.8h0l4.5 1.8H-207.8zM-199.3 394.1h2.8l-0.3 1L-199.3 394.1zM-193.4 395.2l0.3-1.1h1.8l-0.3 1.1H-193.4z" fill="#ffffff" data-fill-palette-color="quaternary"></path></svg></g></svg></g><g></g></svg></g></svg></g></svg></g></svg></g><defs></defs></svg><rect width="342.85155851775386" height="342.85155851775386" fill="none" stroke="none" visibility="hidden"></rect></g></svg></g></svg>