<svg xmlns="http://www.w3.org/2000/svg" version="1.1" xmlns:xlink="http://www.w3.org/1999/xlink" xmlns:svgjs="http://svgjs.dev/svgjs" width="2000" height="1697" viewBox="0 0 2000 1697"><g transform="matrix(1,0,0,1,0.4877475124161492,0.6871378487637685)"><svg viewBox="0 0 291 247" data-background-color="#ffffff" preserveAspectRatio="xMidYMid meet" height="1697" width="2000" xmlns="http://www.w3.org/2000/svg" xmlns:xlink="http://www.w3.org/1999/xlink"><g id="tight-bounds" transform="matrix(1,0,0,1,-0.07077791303569825,-0.10001358199448873)"><svg viewBox="0 0 291.14168628821056 247.2" height="247.2" width="291.14168628821056"><g><svg viewBox="0 0 395.52 335.8246125675448" height="247.2" width="291.14168628821056"><g transform="matrix(1,0,0,1,0,174.4229402397723)"><svg viewBox="0 0 395.52 161.4016723277725" height="161.4016723277725" width="395.52"><g id="textblocktransform"><svg viewBox="0 0 395.52 161.4016723277725" height="161.4016723277725" width="395.52" id="textblock"><g><svg viewBox="0 0 395.52 161.4016723277725" height="161.4016723277725" width="395.52"><path d="M394.594 34.618C392.735 17.864 387.435 13.207 387.435 13.207 371.165-4.049 350.86-0.33 332.619 2.149 300.414 2.25 268.339 5.936 236.208 7.913 168.767 8.214 100.749 3.255 33.643 15.485 27.339 19.238-6.54 16.222 1.121 36.762 3.129 45.306 10.456 54.789 10.232 62.629 11.236 64.003 12.631 60.853 13.226 62.83 15.309 68.158 18.711 65.645 21.501 68.795 17.614 77.205 20.403 84.208 23.062 91.546 18.377 93.456 12.371 92.551 9.675 98.884 9.396 103.474 7.89 102.603 6.235 102.402 5.026 102.268 2.59 102.771 2.999 104.211 4.394 109.137-1.594 111.985 2.162 116.81-0.422 122.037 3.948 126.56 3.353 132.223 3.278 133.362 3.687 134.334 4.338 134.602 7.22 136.043 3.018 138.857 3.464 141.907 33.029 162.748 65.104 148.34 95.394 157.923 103.259 151.221 97.346 160.302 100.489 158.895 102.943 157.253 104.728 164.055 107.499 160.201 107.927 159.096 107.276 156.482 108.8 156.985 109.6 157.253 110.307 157.186 110.418 155.644 110.586 153.332 109.117 154.773 108.726 153.567 112.947 147.469 111.906 161.977 115.866 161.374 115.68 159.598 114.528 157.052 116.889 157.387 119.232 154.84 119.306 152.729 121.389 158.459 121.463 159.699 121.835 160.57 122.43 161.173 128.938 154.941 135.409 163.384 142.233 160.57 146.417 157.487 150.433 162.245 154.672 161.073 156.16 160.134 157.666 158.459 159.098 161.274 176.632 161.877 195.319 159.364 211.943 161.374 256.364 157.621 303.836 162.915 350.674 157.956 361.719 156.046 373.192 153.332 383.958 151.154 383.958 151.154 392.679 145.19 392.679 118.385S394.538 94.93 394.817 73.586C395.096 52.242 396.398 51.371 394.538 34.618Z" opacity="1" fill="#03424c" data-fill-palette-color="tertiary"></path><g transform="matrix(1,0,0,1,55.76832,26.230666666666668)"><svg width="283.98335999999995" viewBox="0.65 -40.15 105.69485573088 40.55" height="108.94033899443917" data-palette-color="#ffffff"><path d="M10.5-25.4L10.5-2.1Q10.5 0.3 7.7 0.3L7.7 0.3Q4.95 0.3 4.95-2.1L4.95-2.1 4.95-25.4 2.55-25.4Q0.75-25.4 0.65-27.75L0.65-27.75Q0.65-30.1 2.55-30.1L2.55-30.1 4.95-30.1 4.95-32.5Q4.95-34.55 5.53-35.98 6.1-37.4 7.4-38.15L7.4-38.15 7.4-38.1Q8.7-38.9 10.08-39.35 11.45-39.8 13-39.8L13-39.8 14.2-39.8Q16.05-39.8 16.05-37.45L16.05-37.45Q16.15-35.1 14.2-35.1L14.2-35.1 13.4-35.1Q12.45-35.1 11.88-34.93 11.3-34.75 11-34.4 10.7-34.05 10.6-33.55 10.5-33.05 10.5-32.45L10.5-32.45 10.5-30.1 14.25-30.1Q16.2-30.1 16.1-27.75L16.1-27.75Q16.1-25.4 14.25-25.4L14.25-25.4 10.5-25.4ZM26.05-37.8L26.05-1.95Q26.05 0.4 23.3 0.4L23.3 0.4Q20.5 0.4 20.5-1.95L20.5-1.95 20.5-37.8Q20.5-40.15 23.3-40.15L23.3-40.15Q26.05-40.15 26.05-37.8L26.05-37.8ZM38.45-22.15L38.45-8Q38.45-6.8 39.22-5.75 40-4.7 41.84-4.7L41.84-4.7 48.09-4.7Q49.95-4.7 50.72-5.63 51.5-6.55 51.5-7.75L51.5-7.75 51.5-8.3Q51.5-10.65 54.25-10.65L54.25-10.65Q57-10.65 57-8.3L57-8.3 57-7.7Q57-5.6 56.32-4.25 55.64-2.9 54.3-1.9L54.3-1.9Q51.64 0 49 0L49 0 40.59 0Q37.95 0 35.45-1.9L35.45-1.9Q34.24-2.9 33.59-4.42 32.95-5.95 32.95-7.95L32.95-7.95 32.95-22.2Q32.95-26.25 35.45-28.2L35.45-28.2Q36.7-29.1 38.02-29.63 39.34-30.15 40.59-30.15L40.59-30.15 49-30.15Q50.2-30.15 51.64-29.68 53.09-29.2 54.34-28.4L54.34-28.4Q55.55-27.55 56.27-26.05 57-24.55 57-22.5L57-22.5 57-15.75Q57-14.6 56.32-13.7 55.64-12.8 53.84-12.8L53.84-12.8 43.05-12.8Q41.25-12.8 41.14-15.15L41.14-15.15Q41.14-17.5 43.05-17.5L43.05-17.5 51.55-17.5 51.5-22.15Q51.5-23.4 50.72-24.43 49.95-25.45 48.09-25.45L48.09-25.45 41.84-25.45Q40-25.45 39.22-24.43 38.45-23.4 38.45-22.15L38.45-22.15ZM68.84-22.15L68.84-8Q68.84-6.8 69.62-5.75 70.39-4.7 72.24-4.7L72.24-4.7 78.49-4.7Q80.34-4.7 81.12-5.63 81.89-6.55 81.89-7.75L81.89-7.75 81.89-8.3Q81.89-10.65 84.64-10.65L84.64-10.65Q87.39-10.65 87.39-8.3L87.39-8.3 87.39-7.7Q87.39-5.6 86.72-4.25 86.04-2.9 84.69-1.9L84.69-1.9Q82.04 0 79.39 0L79.39 0 70.99 0Q68.34 0 65.84-1.9L65.84-1.9Q64.64-2.9 63.99-4.42 63.34-5.95 63.34-7.95L63.34-7.95 63.34-22.2Q63.34-26.25 65.84-28.2L65.84-28.2Q67.09-29.1 68.42-29.63 69.74-30.15 70.99-30.15L70.99-30.15 79.39-30.15Q80.59-30.15 82.04-29.68 83.49-29.2 84.74-28.4L84.74-28.4Q85.94-27.55 86.67-26.05 87.39-24.55 87.39-22.5L87.39-22.5 87.39-15.75Q87.39-14.6 86.72-13.7 86.04-12.8 84.24-12.8L84.24-12.8 73.44-12.8Q71.64-12.8 71.54-15.15L71.54-15.15Q71.54-17.5 73.44-17.5L73.44-17.5 81.94-17.5 81.89-22.15Q81.89-23.4 81.12-24.43 80.34-25.45 78.49-25.45L78.49-25.45 72.24-25.45Q70.39-25.45 69.62-24.43 68.84-23.4 68.84-22.15L68.84-22.15ZM104.44-25.4L100.29-25.4 100.29-7.2Q100.29-5.9 100.84-5.2 101.39-4.5 103.19-4.5L103.19-4.5 104.49-4.5Q106.44-4.5 106.34-2.2L106.34-2.2Q106.34 0.15 104.49 0.15L104.49 0.15 102.84 0.15Q101.24 0.15 99.84-0.28 98.44-0.7 97.14-1.5L97.14-1.5 97.14-1.45Q94.69-3.05 94.69-7.15L94.69-7.15 94.69-25.4 92.74-25.4Q90.94-25.4 90.84-27.75L90.84-27.75Q90.84-30.1 92.74-30.1L92.74-30.1 94.69-30.1 94.69-35.45Q94.69-37.85 97.54-37.85L97.54-37.85Q100.29-37.85 100.29-35.45L100.29-35.45 100.29-30.1 104.44-30.1Q106.39-30.1 106.29-27.75L106.29-27.75Q106.29-25.4 104.44-25.4L104.44-25.4Z" opacity="1" transform="matrix(1,0,0,1,0,0)" fill="#ffffff" class="wordmark-text-0" data-fill-palette-color="quaternary" id="text-0"></path></svg></g></svg></g></svg></g></svg></g><g transform="matrix(1,0,0,1,85.65860629970065,0)"><svg viewBox="0 0 224.20278740059868 148.70474077132107" height="148.70474077132107" width="224.20278740059868"><g><svg xmlns="http://www.w3.org/2000/svg" xmlns:xlink="http://www.w3.org/1999/xlink" version="1.1" x="0" y="0" viewBox="0 14.082000000000008 100 66.326" enable-background="new 0 0 100 100" xml:space="preserve" height="148.70474077132107" width="224.20278740059868" class="icon-icon-0" data-fill-palette-color="accent" id="icon-0"><path fill="#f56607" d="M0 80.408l40.816-66.326 30.803 45.911-9.555 9.378 1.201 1.854 18.367-18.367L100 80.408H0zM40.985 20.207L27.208 42.271l5.934-3.629 2.108 10.983 4.265-13.435 7.404 13.189 0.588-11.081 11.031 9.023L40.985 20.207z" data-fill-palette-color="accent"></path></svg></g></svg></g><g></g></svg></g><defs></defs></svg><rect width="291.14168628821056" height="247.2" fill="none" stroke="none" visibility="hidden"></rect></g></svg></g></svg>