<svg xmlns="http://www.w3.org/2000/svg" version="1.1" xmlns:xlink="http://www.w3.org/1999/xlink" xmlns:svgjs="http://svgjs.dev/svgjs" width="2000" height="2822" viewBox="0 0 2000 2822"><g transform="matrix(1,0,0,1,0.8408782341708729,1.1425101214574624)"><svg viewBox="0 0 175 247" data-background-color="#ffffff" preserveAspectRatio="xMidYMid meet" height="2822" width="2000" xmlns="http://www.w3.org/2000/svg" xmlns:xlink="http://www.w3.org/1999/xlink"><g id="tight-bounds" transform="matrix(1,0,0,1,-0.0735768454899528,-0.09999999999999432)"><svg viewBox="0 0 175.1471536909799 247.2" height="247.2" width="175.1471536909799"><g><svg viewBox="0 0 395.52000000000004 558.2308472594682" height="247.2" width="175.1471536909799"><g transform="matrix(1,0,0,1,0,447.15419527708934)"><svg viewBox="0 0 395.52000000000004 111.07665198237886" height="111.07665198237886" width="395.52000000000004"><g id="textblocktransform"><svg viewBox="0 0 395.52000000000004 111.07665198237886" height="111.07665198237886" width="395.52000000000004" id="textblock"><g><svg viewBox="0 0 395.52000000000004 111.07665198237886" height="111.07665198237886" width="395.52000000000004"><g transform="matrix(1,0,0,1,0,0)"><svg width="395.52000000000004" viewBox="1.4 -24.9 90.78999999999999 25.5" height="111.07665198237886" data-palette-color="#61777f"><path d="M10.45 0.6L10.45 0.6Q7.85 0.6 5.5-0.35 3.15-1.3 1.4-2.75L1.4-2.75 3.45-5.5Q5.05-4.2 6.73-3.4 8.4-2.6 10.6-2.6L10.6-2.6Q13-2.6 14.2-3.7 15.4-4.8 15.4-6.4L15.4-6.4Q15.4-7.35 14.9-8.05 14.4-8.75 13.63-9.28 12.85-9.8 11.85-10.2 10.85-10.6 9.85-11L9.85-11Q8.55-11.45 7.25-12.03 5.95-12.6 4.93-13.43 3.9-14.25 3.25-15.35 2.6-16.45 2.6-18L2.6-18Q2.6-19.45 3.18-20.73 3.75-22 4.83-22.93 5.9-23.85 7.45-24.38 9-24.9 10.95-24.9L10.95-24.9Q13.25-24.9 15.18-24.1 17.1-23.3 18.5-22.15L18.5-22.15 16.55-19.55Q15.3-20.5 13.95-21.1 12.6-21.7 11-21.7L11-21.7Q8.7-21.7 7.63-20.65 6.55-19.6 6.55-18.2L6.55-18.2Q6.55-17.35 7-16.73 7.45-16.1 8.2-15.63 8.95-15.15 9.93-14.78 10.9-14.4 11.95-14L11.95-14Q13.25-13.5 14.58-12.95 15.9-12.4 16.95-11.58 18-10.75 18.68-9.55 19.35-8.35 19.35-6.65L19.35-6.65Q19.35-5.15 18.78-3.85 18.2-2.55 17.07-1.55 15.95-0.55 14.28 0.03 12.6 0.6 10.45 0.6ZM30.65 0.6L30.65 0.6Q27.6 0.6 25.57-1.2 23.55-3 23.55-6.3L23.55-6.3Q23.55-10.3 27.1-12.43 30.65-14.55 38.45-15.4L38.45-15.4Q38.45-16.55 38.22-17.65 38-18.75 37.45-19.6 36.9-20.45 35.92-20.98 34.95-21.5 33.45-21.5L33.45-21.5Q31.35-21.5 29.5-20.7 27.65-19.9 26.2-18.9L26.2-18.9 24.6-21.75Q26.3-22.85 28.75-23.88 31.2-24.9 34.15-24.9L34.15-24.9Q38.6-24.9 40.6-22.18 42.6-19.45 42.6-14.9L42.6-14.9 42.6 0 39.2 0 38.85-2.9 38.7-2.9Q36.95-1.45 34.95-0.43 32.95 0.6 30.65 0.6ZM31.85-2.7L31.85-2.7Q33.6-2.7 35.15-3.53 36.7-4.35 38.45-5.95L38.45-5.95 38.45-12.7Q35.4-12.3 33.32-11.75 31.25-11.2 29.97-10.45 28.7-9.7 28.12-8.72 27.55-7.75 27.55-6.6L27.55-6.6Q27.55-4.5 28.8-3.6 30.05-2.7 31.85-2.7ZM60.3 0L55.5 0 46.75-24.3 51-24.3 55.6-10.5Q56.15-8.7 56.72-6.9 57.3-5.1 57.85-3.35L57.85-3.35 58.05-3.35Q58.6-5.1 59.15-6.9 59.7-8.7 60.25-10.5L60.25-10.5 64.85-24.3 68.9-24.3 60.3 0ZM83.24 0.6L83.24 0.6Q80.79 0.6 78.67-0.28 76.54-1.15 74.97-2.78 73.39-4.4 72.49-6.75 71.59-9.1 71.59-12.1L71.59-12.1Q71.59-15.1 72.52-17.48 73.44-19.85 74.97-21.5 76.49-23.15 78.44-24.03 80.39-24.9 82.49-24.9L82.49-24.9Q84.79-24.9 86.62-24.1 88.44-23.3 89.67-21.8 90.89-20.3 91.54-18.2 92.19-16.1 92.19-13.5L92.19-13.5Q92.19-12.85 92.17-12.23 92.14-11.6 92.04-11.15L92.04-11.15 75.64-11.15Q75.89-7.25 78.07-4.98 80.24-2.7 83.74-2.7L83.74-2.7Q85.49-2.7 86.97-3.23 88.44-3.75 89.79-4.6L89.79-4.6 91.24-1.9Q89.64-0.9 87.69-0.15 85.74 0.6 83.24 0.6ZM75.59-14.1L75.59-14.1 88.59-14.1Q88.59-17.8 87.02-19.73 85.44-21.65 82.59-21.65L82.59-21.65Q81.29-21.65 80.12-21.15 78.94-20.65 77.99-19.68 77.04-18.7 76.42-17.3 75.79-15.9 75.59-14.1Z" opacity="1" transform="matrix(1,0,0,1,0,0)" fill="#61777f" class="wordmark-text-0" data-fill-palette-color="primary" id="text-0"></path></svg></g></svg></g></svg></g></svg></g><g transform="matrix(1,0,0,1,0.4054340548474329,0)"><svg viewBox="0 0 394.7091318903052 394.7091318903052" height="394.7091318903052" width="394.7091318903052"><g><svg></svg></g><g id="icon-0"><svg viewBox="0 0 394.7091318903052 394.7091318903052" height="394.7091318903052" width="394.7091318903052"><g><path d="M0 197.355c0-108.996 88.359-197.355 197.355-197.355 108.996 0 197.355 88.359 197.354 197.355 0 108.996-88.359 197.355-197.354 197.354-108.996 0-197.355-88.359-197.355-197.354zM197.355 384.692c103.464 0 187.338-83.874 187.337-187.337 0-103.464-83.874-187.338-187.337-187.338-103.464 0-187.338 83.874-187.338 187.338 0 103.464 83.874 187.338 187.338 187.337z" data-fill-palette-color="tertiary" fill="#61777f" stroke="transparent"></path></g><g transform="matrix(1,0,0,1,108.13714031279265,79.75106792806913)"><svg viewBox="0 0 178.43485126471987 235.2069960341669" height="235.2069960341669" width="178.43485126471987"><g><svg xmlns="http://www.w3.org/2000/svg" xmlns:xlink="http://www.w3.org/1999/xlink" version="1.1" x="0" y="0" viewBox="8.824 0 75.86300032357288 100.00013052256583" enable-background="new 0 0 100 100" xml:space="preserve" width="178.43485126471987" height="235.2069960341669" class="icon-cg-0" data-fill-palette-color="accent" id="cg-0"><g fill="#61777f" data-fill-palette-color="accent"><path d="M57.816 57.973c0-5.662-3.713-13.065-8.251-16.451L17.076 17.288c-4.539-3.385-8.252-1.522-8.252 4.14v36.197c0 5.662 3.713 13.065 8.252 16.451L49.565 98.31c4.539 3.386 8.251 1.522 8.251-4.14V57.973z" fill="#61777f" data-fill-palette-color="accent"></path><polygon points="26.89,18.187 29.753,20.322 26.89,18.187  " fill="#61777f" data-fill-palette-color="accent"></polygon><path d="M79.539 15.329H63.606L52.863 0 30.972 15.329h-7.913l7.664 5.716L51.748 6.323l16.324 23.286H42.203l8.474 6.321h20.618c1.504 0 2.724 1.22 2.724 2.724s-1.22 2.724-2.724 2.724H56.694c3.754 4.689 6.271 11.067 6.271 16.595v17.41h16.574c2.832 0 5.148-2.316 5.148-5.147V20.476C84.688 17.645 82.371 15.329 79.539 15.329z" fill="#61777f" data-fill-palette-color="accent"></path></g></svg></g></svg></g></svg></g></svg></g><g></g></svg></g><defs></defs></svg><rect width="175.1471536909799" height="247.2" fill="none" stroke="none" visibility="hidden"></rect></g></svg></g></svg>