<svg xmlns="http://www.w3.org/2000/svg" version="1.1" xmlns:xlink="http://www.w3.org/1999/xlink" xmlns:svgjs="http://svgjs.dev/svgjs" width="2000" height="2250" viewBox="0 0 2000 2250"><g transform="matrix(1,0,0,1,0.00034163026134592656,0)"><svg viewBox="0 0 320 360" data-background-color="#ffffff" preserveAspectRatio="xMidYMid meet" height="2250" width="2000" xmlns="http://www.w3.org/2000/svg" xmlns:xlink="http://www.w3.org/1999/xlink"><g id="tight-bounds" transform="matrix(1,0,0,1,0.00005466084189720277,0)"><svg viewBox="0 0 320 360" height="360" width="320"><g><svg></svg></g><g><svg viewBox="0 0 320 360" height="360" width="320"><g><path transform="translate(-119.39272,-98.31927) scale(5.58313,5.58313)" d="M36.7 23.5c0-0.2 0.1-0.4 0.3-0.4 0.2 0 0.4 0.1 0.4 0.4 0.1 0 0.3 0 0.4-0.1 0.4 0 0.8-0.1 1.1 0 0.3 0.1 0.5 0.1 0.8 0.2 0.3 0.1 0.5 0 0.7-0.1 0.4-0.1 0.7-0.3 1.1-0.4 0.2-0.1 0.3-0.1 0.5-0.1 0.2-0.1 0.4-0.1 0.7-0.2 0.5-0.1 1-0.2 1.4-0.4 0.4-0.2 0.8-0.2 1.2-0.3 0.2 0 0.3-0.1 0.5-0.2 0.1 0 0.1-0.1 0.2-0.2 0.2-0.1 0.3-0.2 0.5-0.1 0.1 0.1 0.3 0.1 0.4 0h0.1c0.6 0 1.2-0.1 1.9 0 0.1 0 0.2 0 0.2 0 0.3-0.2 0.7-0.2 1.1-0.2 0.1 0 0.3 0 0.4 0h0.1c0.4 0 0.8 0 1.1 0.1 0.3 0 0.5 0.1 0.8 0.2 0.3 0 0.5 0 0.8 0.1 0.2 0 0.4 0 0.6 0 0.1 0 0.2 0 0.2 0 0.4 0.1 0.8 0.1 1.2 0.1 0.3 0.1 0.6 0.2 1 0.2 0.1 0 0.2 0 0.3 0 0.1 0 0.2 0.1 0.3 0.1l0.1 0.1c0.4 0 0.7 0.2 1.1 0.2 0.1 0 0.3 0 0.4 0.1 0.3 0.2 0.7 0.3 1.1 0.3 0.2 0 0.3 0.1 0.4 0.2 0.3 0.1 0.5 0.2 0.8 0.3 0.2 0.1 0.4 0 0.6 0.1 0.3 0.1 0.7 0.2 1 0.5 0.2 0.2 0.4 0.2 0.7 0.4 0.1 0 0.2 0.1 0.3 0.2 0.3 0.2 0.6 0.4 0.9 0.5 0.1 0 0.2 0.1 0.3 0.1 0.3 0.2 0.6 0.5 1 0.7 0.2 0.1 0.3 0.2 0.5 0.3h0.1c0.3 0.3 0.7 0.5 1 0.8 0.3 0.3 0.5 0.5 0.9 0.7 0 0 0 0 0 0.1 0.1 0.2 0.2 0.3 0.4 0.4 0.2 0.1 0.3 0.2 0.4 0.3 0.3 0.2 0.6 0.4 0.8 0.6 0.1 0.1 0.2 0.2 0.4 0.4 0.1 0.1 0.2 0.2 0.3 0.2 0.4 0.1 0.6 0.4 0.9 0.7 0.2 0.2 0.5 0.5 0.7 0.7 0.1 0.1 0.2 0.3 0.3 0.5 0.2 0.6 0.5 1.2 0.8 1.7 0 0 0 0.1 0.1 0.2v0.1c0.2 0.2 0.3 0.5 0.5 0.7 0.1 0.1 0.1 0.2 0.2 0.3 0.2 0.3 0.3 0.7 0.5 1 0.3 0.5 0.5 1 0.7 1.5v0.1c0.1 0.2 0.2 0.4 0.3 0.7 0 0.2 0.2 0.4 0.3 0.7 0.1 0.5 0.4 1 0.5 1.6 0 0.1 0.1 0.2 0.1 0.4 0.1 0.3 0.2 0.6 0.3 0.9 0 0.1 0.1 0.2 0.2 0.3 0.2 0.2 0.2 0.4 0.2 0.6-0.1 0.4 0 0.8 0.1 1.2 0 0.1 0 0.2 0 0.4 0.1 0.4 0.2 0.9 0.2 1.3 0 0.1 0 0.3 0 0.4 0 0.3 0.1 0.6 0.3 0.9 0 0.1 0.1 0.1 0.1 0.1 0.1 0.1 0.2 0.3 0.3 0.4 0.1 0.1 0.1 0.1 0.2 0.2 0.2 0.2 0.3 0.4 0.3 0.7 0 0.1-0.1 0.3-0.1 0.4 0 0.1 0 0.3 0.1 0.4 0.1 0.1 0.1 0.2 0.1 0.3 0 0.1-0.1 0.2-0.2 0.2v0c-0.1 0.3-0.5 0.4-0.6 0.7-0.1 0.4-0.2 0.8-0.3 1.2-0.1 0.3-0.1 0.5-0.1 0.8 0 0.3-0.1 0.5-0.1 0.8-0.1 0.4-0.2 0.8-0.3 1.2 0 0.2-0.1 0.4-0.1 0.6 0.1 0.1 0.2 0.2 0.3 0.2 0.2 0.2 0.4 0.4 0.6 0.6 0.1 0.1 0.1 0.2 0 0.2-0.1 0.1-0.2 0.1-0.3 0.1-0.1-0.1-0.3-0.2-0.4-0.2-0.1-0.1-0.3-0.2-0.5-0.1 0 0.2-0.1 0.4-0.1 0.5-0.1 0.2-0.2 0.5-0.2 0.7-0.1 0.4-0.3 0.7-0.4 1.1-0.2 0.5-0.4 0.9-0.6 1.3-0.1 0.2-0.2 0.4-0.3 0.6v0c0 0.3-0.3 0.6-0.4 0.9-0.2 0.4-0.4 0.8-0.6 1.3-0.1 0.2-0.2 0.4-0.3 0.5-0.2 0.5-0.4 0.9-0.7 1.3-0.2 0.3-0.4 0.5-0.6 0.6-0.2 0.2-0.4 0.4-0.6 0.6-0.1 0.1-0.2 0.2-0.3 0.3-0.1 0.1-0.1 0.1-0.2 0.2-0.2 0.3-0.5 0.5-0.7 0.8-0.2 0.2-0.3 0.4-0.6 0.6-0.2 0.2-0.4 0.5-0.7 0.6-0.1 0.1-0.2 0.3-0.3 0.4-0.1 0.1-0.2 0.3-0.3 0.4 0 0.2 0.1 0.4 0.1 0.5 0 0.3-0.3 0.4-0.5 0.2-0.3-0.2-0.3-0.2-0.6 0-0.3 0.2-0.6 0.5-1 0.6-0.1 0-0.1 0.1-0.2 0.1-0.2 0.1-0.3 0.3-0.5 0.4-0.2 0.2-0.5 0.3-0.7 0.5-0.1 0.1-0.2 0.1-0.3 0.2-0.3 0.2-0.6 0.3-0.9 0.6-0.1 0.1-0.2 0.1-0.3 0.2 0 0.1 0 0.1 0 0.2 0 0.2-0.2 0.4-0.5 0.3-0.3-0.1-0.5 0-0.8 0-0.3 0.1-0.6 0.3-0.9 0.4-0.1 0-0.2 0.1-0.3 0.2-0.3 0.2-0.6 0.3-0.9 0.4-0.2 0-0.4 0.2-0.6 0.2-0.1 0-0.2 0.1-0.3 0.1h-0.1c-0.4 0.3-0.8 0.5-1.2 0.8-0.1 0-0.1 0.1-0.2 0.2-0.1 0.2-0.2 0.3-0.4 0.3-0.5 0-0.7 0.4-0.6 0.8 0 0.1 0.1 0.2 0.1 0.3 0.1 0.2 0 0.4-0.1 0.5-0.1 0.1-0.4 0.1-0.5-0.1-0.2-0.2-0.3-0.4-0.4-0.7-0.1-0.2-0.3-0.4-0.5-0.5-0.2-0.1-0.4-0.1-0.6 0-0.1 0-0.1 0.1-0.2 0.1-0.2 0.2-0.5 0.3-0.8 0.2-0.1 0-0.3 0-0.3 0.1-0.1 0.1-0.1 0.3 0 0.4 0.2 0.2 0.1 0.4 0.1 0.7 0 0.4-0.3 0.6-0.7 0.4-0.1-0.1-0.2-0.1-0.3-0.2-0.1 0-0.1-0.1-0.1-0.2-0.1-0.1-0.1-0.3-0.2-0.5-0.2 0.1-0.4 0.1-0.6 0.2-0.1 0-0.2 0.1-0.3 0.1-0.3 0-0.4 0-0.5-0.3-0.1-0.3-0.3-0.3-0.5-0.4-0.4-0.1-0.9-0.1-1.3-0.3h-0.1c-0.4-0.3-0.8-0.3-1.3-0.3-0.3 0-0.6 0.1-0.9 0.1-0.3 0-0.5 0.1-0.7 0.3-0.1 0.1-0.2 0.2-0.3 0.2-0.1-0.1-0.1-0.2-0.2-0.3v-0.1c0-0.1-0.1-0.2-0.2-0.1-0.2 0.1-0.4-0.1-0.6-0.2-0.1-0.1-0.3-0.3-0.3-0.5-0.1-0.1-0.2-0.2-0.3-0.2-0.2 0-0.5-0.1-0.7-0.1-0.1 0-0.2 0-0.2-0.1-0.1-0.1-0.2-0.1-0.4-0.1-0.1 0-0.1-0.1-0.2-0.1 0.2 0.2 0.3 0.4 0.4 0.6 0 0.1 0.1 0.1 0.1 0.2 0.1 0.2 0 0.3-0.3 0.3-0.2 0-0.2 0-0.3 0.1 0 0.2 0 0.3 0 0.5 0 0.1 0 0.2-0.2 0.3 0 0-0.1 0-0.1 0.1-0.1 0.1-0.1 0.2 0 0.3 0.3 0.2 0.5 0.3 0.8 0.4 0.3 0 0.3 0.2 0.4 0.4 0.1 0.2 0 0.3-0.1 0.5-0.2 0.2-0.4 0.4-0.6 0.6-0.3 0.1-0.5 0.4-0.8 0.4-0.2 0-0.4-0.1-0.5-0.3-0.1-0.5-0.1-0.9 0.1-1.4 0-0.1 0.1-0.2 0-0.3-0.9 0-0.9-0.2-0.9-0.3 0-0.2 0.1-0.3 0.1-0.5 0.1-0.2 0-0.3-0.3-0.4-0.1 0-0.2 0-0.3 0-0.1 0-0.1-0.1-0.3-0.1 0.2-0.1 0.3-0.1 0.5-0.2-0.1-0.4-0.2-0.7-0.5-0.9-0.1-0.1-0.2-0.2-0.2-0.4 0-0.3-0.2-0.5-0.3-0.7-0.2-0.3-0.6-0.4-0.9-0.4-0.3-0.1-0.5-0.1-0.8-0.2-0.3-0.1-0.6-0.4-0.9-0.5-0.1-0.1-0.2-0.2-0.4-0.3-0.4-0.2-0.7-0.5-1-0.8-0.2-0.1-0.3-0.3-0.5-0.4-0.2-0.2-0.3-0.4-0.5-0.5-0.2-0.2-0.4-0.4-0.7-0.6-0.3-0.2-0.5-0.5-0.8-0.8-0.2-0.3-0.5-0.5-0.8-0.7-0.1 0-0.2 0-0.3 0-0.1 0-0.2 0.1-0.3 0.1-0.3 0.1-0.5 0.3-0.8 0.4 0.1-0.1 0.1-0.1 0-0.3-0.1-0.1-0.2-0.2-0.3-0.2-0.2 0-0.4 0-0.6 0-0.4 0-0.8 0.1-1.2 0.1-0.3 0-0.7 0.1-1 0.2 0.1 0.2 0.1 0.3 0.2 0.5-0.2 0.1-0.4 0.1-0.6 0.1-0.1 0-0.3 0.1-0.4 0.2-0.1 0-0.1 0.1-0.2 0-0.2-0.1-0.4 0-0.6 0.1h-0.1c0 0 0-0.1 0.1-0.1 0.1-0.1 0.2-0.2 0.3-0.3 0.1-0.1 0.2-0.1 0.4-0.2-0.1-0.1-0.1-0.2-0.1-0.2-0.1-0.1-0.2-0.1-0.3 0-0.1 0.1-0.2 0.2-0.3 0.3-0.1 0.1-0.2 0.1-0.3 0-0.1-0.1-0.1-0.2 0-0.3 0-0.1 0.1-0.2 0.2-0.3 0.1-0.1 0.1-0.2 0.2-0.3-0.2-0.2-0.3-0.4-0.5-0.5-0.3-0.2-0.6-0.5-0.8-0.8-0.2-0.4-0.5-0.7-0.9-0.9-0.1-0.1-0.2-0.2-0.3-0.3-0.1-0.1-0.1-0.1-0.2-0.2-0.3 0.1-0.5 0.3-0.8 0.4-0.1 0-0.1 0.1-0.2 0.2-0.1 0.2-0.3 0.2-0.5 0.2-0.1 0-0.2-0.1-0.1-0.2 0.1-0.2 0.2-0.4 0.5-0.3 0 0 0.1 0 0.1-0.1 0.2-0.2 0.4-0.5 0.7-0.7-0.1-0.3-0.3-0.5-0.4-0.7-0.1-0.1-0.1-0.2-0.1-0.4 0-0.1 0-0.1-0.1-0.2 0 0-0.1 0-0.2 0.1-0.1 0.1-0.3 0.2-0.5 0 0-0.1 0-0.2 0.1-0.3l0.1-0.1c0.3-0.1 0.3-0.4 0.3-0.7v-0.1c-0.1-0.2-0.1-0.3 0.1-0.5 0.3-0.2 0.6-0.6 0.7-0.9 0.1-0.2 0.3-0.3 0.5-0.5 0.2-0.2 0.4-0.4 0.5-0.7h0.1c0.4 0.1 0.5-0.2 0.7-0.5 0-0.1 0-0.2 0.1-0.2 0.2-0.2 0.2-0.4 0.1-0.7 0-0.1-0.1-0.3-0.1-0.4 0-0.1 0-0.1-0.1-0.2-0.3-0.2-0.3-0.4 0-0.6 0.2-0.1 0.2-0.3 0.3-0.4 0.1-0.2 0.1-0.4 0.1-0.7-0.1-0.3-0.1-0.7-0.2-1-0.1-0.4-0.2-0.9-0.3-1.3 0-0.1 0-0.1 0-0.2 0-0.3 0-0.5-0.1-0.8-0.1-0.1-0.1-0.3-0.1-0.4-0.1-0.3-0.2-0.5-0.5-0.6-0.3-0.2-0.7-0.3-1-0.5-0.1-0.1-0.2 0-0.3 0.1-0.1 0.2-0.3 0.4-0.4 0.6-0.1 0.1-0.2 0.3-0.3 0.5-0.2 0.2-0.6 0.4-0.9 0.1-0.1-0.2-0.2-0.3 0-0.5 0.2-0.3 0.4-0.6 0.7-0.8 0.1-0.1 0.2-0.3 0.3-0.4 0.1-0.2 0.1-0.4 0.1-0.6-0.1-0.4-0.2-0.8-0.2-1.3 0-0.5 0-0.9 0.1-1.4 0.1-0.2 0.1-0.5 0.2-0.7 0-0.1 0.1-0.3 0.2-0.4 0.2-0.2 0.4-0.4 0.5-0.7 0.1-0.3 0.3-0.6 0.3-0.9 0-0.1 0.1-0.2 0.1-0.3 0-0.1 0.1-0.3 0.1-0.4-0.1-0.3 0-0.5 0.1-0.7 0.1-0.2 0.2-0.5 0.3-0.7 0.2-0.4 0.2-0.9 0.6-1.3 0.1-0.2 0.2-0.4 0.3-0.6 0.1-0.4 0.3-0.7 0.5-1 0.1-0.1 0.1-0.1 0.1-0.2 0.1-0.3 0.3-0.6 0.5-0.9 0.2-0.3 0.2-0.6 0.3-0.9 0-0.1 0-0.2 0.1-0.3 0.3-0.3 0.2-0.7 0.1-1.1-0.2-0.5-0.3-1-0.2-1.5 0-0.1 0-0.2 0.1-0.2 0.1-0.2 0.1-0.3 0.2-0.5v-0.1c0.2-0.2 0.4-0.5 0.7-0.6 0.4-0.2 0.8-0.3 1.3-0.4 0.4 0 0.8-0.2 1.1-0.6 0-0.1 0.1-0.1 0.2-0.2l0.1-0.1c0.1-0.2 0.2-0.3 0.3-0.4 0.2-0.2 0.4-0.5 0.6-0.7 0.2-0.2 0.4-0.5 0.7-0.8l0.1-0.1c0.2-0.2 0.4-0.4 0.6-0.5 0.2-0.2 0.4-0.4 0.6-0.6 0.2-0.2 0.3-0.4 0.5-0.6 0.2-0.1 0.4-0.3 0.6-0.5 0.2-0.2 0.4-0.4 0.5-0.5 0.2-0.2 0.5-0.4 0.7-0.5 0.2-0.1 0.4-0.2 0.5-0.5 0.1-0.3 0.2-0.5 0.3-0.8 0-0.2 0.1-0.4 0.2-0.6 0.1 0 0.2 0 0.4-0.1-0.1-0.1-0.2-0.1-0.2-0.2 0-0.1 0.1-0.2 0.1-0.2 0-0.1 0.1-0.2 0.1-0.3 0 0 0.1 0 0.1-0.1 0 0 0.1 0 0.1-0.1-0.2 0.1-0.3 0-0.4-0.1 0.1 0.1 0.2 0.1 0.4 0.2 0 0 0.1 0 0.1-0.1 0-0.1 0-0.2 0-0.2 0 0-0.1 0-0.2 0-0.1 0-0.2 0.1-0.3 0.1zM54 70.5c0-0.1-0.1-0.1-0.1-0.2-0.1-0.2 0-0.3 0.1-0.4 0.1-0.1 0.2-0.1 0.4-0.1 0.2 0.1 0.3 0.2 0.3 0.4 0 0.1 0 0.3 0 0.4 0.1 0.4 0.1 0.4 0.5 0.4 0.2 0 0.4 0 0.6 0 0.4-0.1 0.8-0.3 1.2-0.4 0.4-0.1 0.8-0.2 1.2-0.3 0.1 0 0.2 0 0.4 0 0.4 0.1 0.7 0 1-0.2 0.1-0.1 0.3-0.1 0.4-0.2 0.2-0.1 0.4-0.1 0.6-0.2 0.5-0.3 1-0.5 1.4-0.8 0.3-0.2 0.6-0.4 0.9-0.6 0.3-0.2 0.6-0.4 0.9-0.6 0.2-0.1 0.5-0.3 0.7-0.5 0.4-0.3 0.7-0.6 1.1-0.8 0.2-0.1 0.3-0.2 0.4-0.3 0.2-0.1 0.3-0.3 0.5-0.4 0.1-0.1 0.2-0.2 0.4-0.3 0.1-0.1 0.1-0.1 0.1-0.2 0.3-0.2 0.6-0.6 0.8-0.9 0.2-0.2 0.4-0.4 0.6-0.7 0.3-0.3 0.5-0.7 0.8-1.1 0.2-0.2 0.4-0.5 0.5-0.7 0.2-0.4 0.4-0.8 0.7-1.1v-0.1c0.2-0.4 0.4-0.8 0.6-1.2 0.3-0.5 0.5-1.1 0.8-1.6 0.1-0.2 0.2-0.4 0.2-0.6 0.2-0.4 0.3-0.8 0.4-1.2 0-0.1 0-0.1 0.1-0.2 0.3-0.6 0.5-1.2 0.6-1.9 0.1-0.4 0.2-0.8 0.3-1.2 0.2-0.6 0.2-1.1 0.3-1.7 0.1-0.4 0.1-0.9 0.1-1.3 0.1-0.6 0.1-1.3 0-1.9 0-0.5-0.1-1.1-0.1-1.6 0-0.5-0.1-0.9-0.2-1.4-0.1-0.5-0.2-0.9-0.3-1.4-0.2-0.4-0.3-0.8-0.4-1.3-0.1-0.4-0.3-0.7-0.3-1.1 0-0.3-0.1-0.6-0.4-0.7-0.3-0.1-0.5-0.2-0.8-0.4-0.6-0.4-0.9-0.9-0.8-1.5 0-0.3 0.1-0.7 0.2-1 0.1-0.3 0.2-0.6 0-0.8-0.1-0.3-0.3-0.5-0.4-0.7-0.2-0.3-0.3-0.5-0.5-0.7-0.2-0.4-0.4-0.8-0.7-1.1-0.4-0.5-0.7-1-1.2-1.4l-0.1-0.1c-0.3-0.4-0.6-0.8-1-1.1-0.2-0.2-0.4-0.4-0.6-0.5-0.1-0.1-0.2-0.2-0.4-0.3-0.3-0.2-0.6-0.3-0.8-0.5-0.3-0.3-0.7-0.5-1-0.7 0 0-0.1 0-0.1-0.1-0.4-0.2-0.7-0.3-1.1-0.5-0.4-0.2-0.8-0.3-1.2-0.3-0.1 0-0.1 0-0.2 0-0.1-0.1-0.3-0.1-0.4-0.1-0.1 0-0.1 0-0.2 0-0.2-0.1-0.5 0-0.7 0-0.4 0.1-0.8 0.1-1.2-0.1-0.5-0.2-0.9-0.4-1.3-0.6-0.3-0.2-0.5-0.4-0.8-0.6-0.6-0.5-1.2-1.1-1.9-1.6 0.1-0.5-0.1-0.6-0.5-0.6-0.2 0-0.4 0.1-0.6 0.2-0.1 0.1-0.1 0.1-0.2 0.2-0.3 0.2-0.5 0.5-0.8 0.7-0.5 0.3-0.7 0.2-1.1 0-0.1-0.1-0.2-0.2-0.3-0.3-0.2-0.2-0.4-0.5-0.5-0.7-0.2-0.4-0.6-0.4-1-0.4-0.2 0-0.5 0.1-0.7 0.1-0.4 0-0.8 0.2-1 0.5-0.2 0.3-0.4 0.6-0.7 0.9-0.1 0.1-0.3 0.2-0.4 0.4-0.2 0.2-0.4 0.2-0.6 0-0.1-0.1-0.2-0.1-0.3-0.2-0.1 0.1-0.2 0.2-0.2 0.3-0.1 0.2-0.2 0.4-0.3 0.7-0.1 0.3-0.3 0.6-0.5 0.8-0.1 0.1-0.1 0.1-0.2 0.2-0.1 0.2-0.4 0.3-0.6 0.3-0.2 0.2-0.4 0.5-0.5 0.7-0.1 0.2-0.2 0.4-0.3 0.7-0.1 0.1-0.1 0.3-0.2 0.4-0.1 0.2-0.1 0.3-0.1 0.5 0.1 0.3-0.1 0.4-0.4 0.5-0.2 0-0.2 0-0.3 0.2 0 0.3 0.1 0.5 0.2 0.8 0.1 0.1 0.2 0.3 0.2 0.4 0 0.2 0.1 0.3 0.3 0.4 0.1 0.1 0.2 0.2 0.3 0.2 0.1 0 0.1 0.1 0.2 0.1 0.1 0.1 0.2 0 0.2-0.1 0.1-0.3 0.2-0.6 0.2-0.9 0.1-0.4 0.1-0.7 0.2-1.1 0.1-0.2 0.2-0.3 0.3-0.4 0 0 0.1 0 0.2 0v0.1c-0.1 0.5-0.3 1.1-0.4 1.6-0.1 0.2-0.1 0.4-0.2 0.6 0 0.1-0.1 0.2-0.2 0.2-0.2 0.1-0.4 0.2-0.6 0.2-0.1 0-0.2 0-0.3 0-0.2-0.1-0.4-0.3-0.6-0.4-0.1-0.1-0.2-0.2-0.3-0.3-0.1-0.2-0.2-0.4-0.3-0.6-0.1-0.2-0.2-0.3-0.4-0.4-0.1-0.1-0.2-0.1-0.3-0.2-0.2-0.2-0.4-0.3-0.7-0.3-0.1 0-0.3 0-0.4 0-0.1 0-0.3 0.1-0.4 0.2-0.2 0.1-0.3 0.1-0.5 0-0.5-0.2-1-0.1-1.5 0.1-0.2 0.1-0.4 0.2-0.6 0.2-0.5 0-0.9 0-1.4 0-0.5 0-0.9-0.1-1.4-0.2-0.2 0-0.4 0-0.6 0-0.4 0.1-0.5 0.4-0.4 0.8 0.1 0.4 0.2 0.9 0.2 1.3 0 0.3 0 0.6 0 0.9 0 0.2 0 0.3 0 0.5 0 0.3-0.1 0.6-0.1 0.9-0.1 0.6-0.4 1.1-0.8 1.5-0.3 0.3-0.7 0.6-1.1 0.7-0.2 0.1-0.4 0.2-0.7 0.3-0.5 0.2-0.9 0.6-1.2 1.1-0.1 0.2-0.2 0.4-0.3 0.6-0.2 0.3-0.3 0.5-0.5 0.8-0.1 0.2-0.3 0.4-0.4 0.6-0.1 0.2-0.3 0.3-0.3 0.5-0.2 0.4-0.3 0.8-0.5 1.2-0.1 0.2-0.1 0.5-0.2 0.7-0.2 0.4-0.2 0.8-0.2 1.3 0 0.1 0 0.2 0 0.4 0 0.5-0.1 1.1-0.1 1.6 0 0.5 0 1 0.1 1.5 0 0.2 0 0.5 0 0.7 0 0.4 0.1 0.9 0.1 1.3 0 0.4 0 0.9 0.2 1.3v0.1c0.1 0.4 0.1 0.8 0.2 1.2 0 0.1 0 0.2 0.1 0.3 0.2 0.6 0.3 1.1 0.5 1.7 0.1 0.4 0.3 0.8 0.4 1.2 0.1 0.4 0.5 0.8 0.6 1.3v0c0.3 0.6 0.6 1.2 1 1.8 0.1 0.2 0.3 0.4 0.4 0.6 0.2 0.3 0.3 0.6 0.5 0.8 0.1 0.2 0.3 0.4 0.4 0.5 0.1 0.2 0.2 0.4 0.4 0.6 0.2 0.2 0.4 0.5 0.6 0.7 0.3 0.5 0.7 0.9 1.1 1.2 0.2 0.2 0.4 0.3 0.6 0.5 0.1 0.1 0.2 0.1 0.2 0.2 0.1 0.1 0.2 0.2 0.4 0.3 0.8 0.4 1.4 1 2.1 1.6 0.3 0.3 0.6 0.6 1 0.8 0.4 0.3 0.7 0.6 1.2 0.7 0 0 0.1 0 0.1 0.1 0.2 0.2 0.5 0.3 0.7 0.4 0.4 0.2 0.9 0.4 1.3 0.6 0.1 0.1 0.3 0.1 0.4 0.2 0.3 0.1 0.6 0.2 0.9 0.3 0.3 0.1 0.5 0.2 0.8 0.2h0.1c0.2 0.1 0.3 0.1 0.5 0 0.1 0 0.2 0 0.2 0.1 0 0.1 0.1 0.1 0.2 0.1 0.1 0 0.2 0 0.4 0 0.1-0.1 0.1-0.2 0.2-0.4 0.1 0.1 0.2 0.1 0.2 0.1 0.1 0.2 0.3 0.2 0.5 0.2h0.1c0.2 0 0.3 0 0.4-0.1 0-0.1 0.2-0.1 0.3-0.1 0.3 0.1 0.6 0.1 0.9 0.2 0.2 0.1 0.5 0.1 0.6-0.1 0.1-0.1 0.2-0.2 0.4-0.1 0.2 0.1 0.3 0.1 0.5 0 0.1 0 0.2 0 0.2 0 0.3 0.1 0.5 0.1 0.8 0.2 0.4 0.1 0.4 0.1 0.7-0.2 0.1-0.1 0.3-0.1 0.4 0 0.1 0.2 0.1 0.3 0.1 0.5 0.1 0 0.1 0 0.2-0.1 0-0.2 0.1-0.2 0.3-0.3 0.1 0.1 0.1 0.1 0.2 0.1 0.2 0.2 0.3 0.2 0.4-0.1 0-0.1 0-0.2 0.1-0.2 0.1 0 0.2 0.1 0.2 0.1 0.1 0.2 0.3 0.3 0.4 0.5 0.2 0.2 0.5 0.2 0.6 0 0.1-0.1 0.2-0.1 0.3-0.1 0-0.1 0-0.2 0-0.3 0.3 0.2 0.2 0.2 0.1 0.2zM37.4 23.8c0.3 0.1 0.5 0.1 0.6-0.1-0.2 0.1-0.4-0.1-0.6 0.1z" fill="#5199ab" fill-rule="nonzero" stroke="none" stroke-width="1" stroke-linecap="butt" stroke-linejoin="miter" stroke-miterlimit="10" stroke-dasharray="" stroke-dashoffset="0" font-family="none" font-weight="none" font-size="none" text-anchor="none" style="mix-blend-mode: normal" data-fill-palette-color="tertiary"></path></g><g transform="matrix(1,0,0,1,64,154.83182836336897)"><svg viewBox="0 0 192 50.33634327326209" height="50.33634327326209" width="192"><g><svg viewBox="0 0 192 50.33634327326209" height="50.33634327326209" width="192"><g><svg viewBox="0 0 287.25485351560417 75.30916100766703" height="50.33634327326209" width="192"><g transform="matrix(1,0,0,1,0,10.408140197152246)"><svg viewBox="0 0 192 54.49288061336254" height="54.49288061336254" width="192"><g id="textblocktransform"><svg viewBox="0 0 192 54.49288061336254" height="54.49288061336254" width="192" id="textblock"><g><svg viewBox="0 0 192 54.49288061336254" height="54.49288061336254" width="192"><g transform="matrix(1,0,0,1,0,0)"><svg width="192" viewBox="3.03 -37.5 178.3 50.61" height="54.49288061336254" data-palette-color="#8c8158"><g class="wordmark-text-0" data-fill-palette-color="primary" id="text-0"><path d="M3.37-0.07L3.05-6.74Q3.05-6.76 3.04-6.77 3.03-6.79 3.03-6.81L3.03-6.81Q3.03-7.13 3.37-7.13L3.37-7.13Q3.59-7.13 3.76-6.96L3.76-6.96Q4.74-6.03 5.99-5.44 7.25-4.86 8.72-4.86L8.72-4.86Q9.11-4.86 9.62-4.94 10.13-5.03 10.6-5.22 11.06-5.42 11.36-5.75 11.67-6.08 11.67-6.57L11.67-6.57Q11.67-7.1 11.4-7.56 11.13-8.01 10.69-8.3L10.69-8.3Q10.45-8.47 9.84-8.9 9.23-9.33 8.53-9.81 7.84-10.3 7.21-10.74 6.59-11.18 6.35-11.38L6.35-11.38Q5.25-12.21 4.6-13.06 3.96-13.92 3.61-14.83 3.27-15.75 3.17-16.75 3.08-17.75 3.08-18.87L3.08-18.87Q3.08-20.58 3.98-22.09 4.88-23.61 6.36-24.76 7.84-25.9 9.72-26.57 11.6-27.25 13.55-27.25L13.55-27.25Q15.16-27.25 16.72-26.76 18.29-26.27 19.63-25.1L19.63-25.1Q19.75-23.56 19.8-22.07 19.85-20.58 19.95-18.95L19.95-18.95Q19.95-18.63 19.8-18.52 19.65-18.41 19.46-18.41L19.46-18.41Q19.29-18.41 19.17-18.53L19.17-18.53Q18.6-19.07 18.02-19.59 17.43-20.12 16.78-20.52 16.14-20.92 15.41-21.18 14.67-21.44 13.84-21.44L13.84-21.44Q13.33-21.44 12.82-21.35 12.3-21.26 11.89-21.03 11.47-20.8 11.22-20.41 10.96-20.02 10.96-19.41L10.96-19.41Q10.96-18.7 11.13-18.19 11.3-17.68 11.94-17.19L11.94-17.19 16.48-14.11Q17.72-13.26 18.49-12.44 19.26-11.62 19.7-10.82 20.14-10.01 20.3-9.22 20.46-8.42 20.46-7.64L20.46-7.64Q20.46-5.44 19.45-3.77 18.43-2.1 16.82-0.99 15.21 0.12 13.17 0.7 11.13 1.27 9.08 1.27L9.08 1.27Q7.52 1.27 6.07 0.94 4.61 0.61 3.37-0.07L3.37-0.07ZM38.5-27.25L38.5-27.25Q40.82-27.25 42.71-26.38 44.6-25.51 45.96-24.13 47.31-22.75 48.04-21.04 48.78-19.34 48.78-17.63L48.78-17.63Q48.78-16.11 47.85-14.59 46.92-13.06 45.25-11.84 43.58-10.62 41.23-9.86 38.89-9.11 36.08-9.11L36.08-9.11Q34.62-9.11 33.01-9.4L33.01-9.4Q33.1-8.35 33.62-7.59 34.13-6.84 34.91-6.35 35.69-5.86 36.68-5.63 37.67-5.4 38.72-5.4L38.72-5.4Q39.89-5.4 40.98-5.6 42.06-5.81 43.06-6.15 44.06-6.49 44.99-6.91 45.92-7.32 46.75-7.74L46.75-7.74Q46.97-7.79 47.13-7.82 47.29-7.86 47.43-7.86L47.43-7.86Q47.43-7.86 47.42-7.47 47.41-7.08 47.41-6.37 47.41-5.66 47.4-4.66 47.39-3.66 47.36-2.44L47.36-2.44Q47.43-2.32 47.46-2.2 47.48-2.08 47.48-2L47.48-2Q47.48-1.71 46.95-1.37 46.41-1.03 45.54-0.66 44.68-0.29 43.56 0.05 42.45 0.39 41.31 0.67 40.16 0.95 39.08 1.11 38.01 1.27 37.2 1.27L37.2 1.27Q34.57 1.27 32.09 0.35 29.61-0.56 27.7-2.27 25.78-3.98 24.63-6.42 23.48-8.86 23.48-11.91L23.48-11.91Q23.48-15.11 24.58-17.91 25.68-20.7 27.67-22.78 29.66-24.85 32.42-26.05 35.18-27.25 38.5-27.25ZM38.21-20.75L38.21-20.75Q37.2-20.75 36.36-20.32 35.52-19.9 34.82-19.1 34.13-18.31 33.62-17.2 33.1-16.09 32.79-14.75L32.79-14.75Q35.3-15.19 36.96-15.67 38.62-16.16 39.62-16.66 40.62-17.16 41.04-17.66 41.45-18.16 41.45-18.63L41.45-18.63Q41.45-19.07 41.12-19.46 40.79-19.85 40.31-20.14 39.82-20.43 39.24-20.59 38.67-20.75 38.21-20.75ZM79.27-27.66L76.75-4.91Q76.73-4.81 76.73-4.72 76.73-4.64 76.73-4.57L76.73-4.57Q76.73-3.96 76.92-3.55 77.12-3.15 77.35-2.89 77.58-2.64 77.78-2.48 77.97-2.32 77.97-2.2L77.97-2.2Q77.97-1.86 77.24-1.56L77.24-1.56 70.67 1.25Q70.65 1.27 70.5 1.27L70.5 1.27Q70.31 1.27 70.11 0.93 69.92 0.59 69.73 0.06 69.55-0.46 69.39-1.06 69.23-1.66 69.11-2.17L69.11-2.17Q67.57-0.39 65.79 0.44 64.01 1.27 62.25 1.27L62.25 1.27Q60.2 1.27 58.25 0.37 56.29-0.54 54.78-2.21 53.27-3.88 52.35-6.25 51.44-8.62 51.44-11.57L51.44-11.57Q51.44-15.06 52.45-17.94 53.46-20.83 55.2-22.9 56.93-24.98 59.24-26.11 61.54-27.25 64.13-27.25L64.13-27.25Q65.96-27.25 67.6-26.5 69.23-25.76 70.7-24.58L70.7-24.58Q70.84-25.32 70.87-25.76 70.89-26.2 70.98-26.44 71.06-26.68 71.31-26.77 71.55-26.86 72.11-26.9L72.11-26.9Q73.87-27.15 75.62-27.36 77.36-27.56 79.27-27.66L79.27-27.66ZM68.43-6.88L69.45-14.11Q69.7-15.5 69.78-16.74 69.87-17.97 69.92-18.99L69.92-18.99Q69.53-19.29 69.07-19.6 68.62-19.92 68.1-20.2 67.57-20.48 67-20.65 66.43-20.83 65.79-20.83L65.79-20.83Q64.47-20.83 63.58-19.97 62.69-19.12 62.14-17.87 61.59-16.63 61.36-15.23 61.13-13.84 61.13-12.77L61.13-12.77Q61.13-8.91 62.14-7.12 63.15-5.32 64.96-5.32L64.96-5.32Q65.69-5.32 66.6-5.74 67.5-6.15 68.43-6.88L68.43-6.88ZM87.25-20.31L95.11-20.63Q96.35-20.68 97.54-20.72 98.72-20.75 99.7-20.79 100.68-20.83 101.4-20.86 102.12-20.9 102.41-20.9L102.41-20.9Q102.6-20.9 102.85-20.75 103.09-20.61 103.09-20.19L103.09-20.19Q103.09-19.97 102.86-19.38 102.63-18.8 102.26-17.96 101.9-17.11 101.43-16.08 100.97-15.04 100.48-13.92L100.48-13.92Q100.38-13.7 100.3-13.55 100.21-13.4 100.08-13.29 99.94-13.18 99.72-13.13 99.5-13.09 99.14-13.09L99.14-13.09Q96.94-13.04 94.74-13 92.55-12.96 90.61-12.93 88.66-12.89 87.1-12.87 85.54-12.84 84.61-12.84L84.61-12.84Q83.15-12.84 82.43-12.98 81.71-13.11 81.71-13.53L81.71-13.53Q81.71-13.65 82.01-14.2 82.32-14.75 82.81-15.49 83.29-16.24 83.92-17.08 84.54-17.92 85.15-18.63 85.76-19.34 86.32-19.81 86.88-20.29 87.25-20.31L87.25-20.31ZM107.36-20.65L107.36-20.65Q107.66-24 107.84-27.27 108.02-30.54 108.24-33.98L108.24-33.98Q108.29-34.79 108.4-35.1 108.51-35.4 108.95-35.5L108.95-35.5Q111.22-35.91 113.5-36.34 115.79-36.77 118.08-37.48L118.08-37.48Q118.15-37.5 118.3-37.5L118.3-37.5Q118.57-37.5 118.57-37.26L118.57-37.26 115.4-2.39 115.4-1.98Q115.4-1.76 115.22-1.62 115.05-1.49 114.42-1.32L114.42-1.32 108.02 1.03Q107.75 1.15 107.31 1.28 106.87 1.42 106.46 1.42L106.46 1.42Q106.12 1.42 105.86 1.25 105.61 1.07 105.61 0.66L105.61 0.66 105.61 0.51Q105.8-1.95 105.98-4.31 106.17-6.67 106.37-9.18 106.58-11.69 106.83-14.5 107.07-17.31 107.36-20.65ZM134.29 1.27L134.29 1.27Q130.85 1.27 128.25 0.15 125.65-0.98 123.89-2.84 122.13-4.71 121.25-7.14 120.37-9.57 120.37-12.18L120.37-12.18Q120.37-14.79 121.23-17.15 122.08-19.51 123.62-21.37 125.16-23.24 127.31-24.5 129.46-25.76 132.04-26.2L132.04-26.2Q132.43-26.22 132.43-26.37L132.43-26.37Q132.43-26.64 132.37-26.87 132.31-27.1 132.31-27.27L132.31-27.27Q132.31-27.54 132.41-27.64 132.51-27.73 132.63-27.73L132.63-27.73Q137.29-27.73 140.56-26.67 143.84-25.61 145.89-23.78 147.94-21.95 148.86-19.46 149.79-16.97 149.79-14.11L149.79-14.11Q149.79-10.47 148.57-7.62 147.35-4.76 145.24-2.78 143.13-0.81 140.31 0.23 137.49 1.27 134.29 1.27ZM129.77-12.45L129.77-12.45Q129.77-11.13 130.05-9.84 130.33-8.54 130.98-7.5 131.63-6.45 132.68-5.8 133.73-5.15 135.29-5.15L135.29-5.15Q136.41-5.2 137.26-5.65 138.1-6.1 138.71-6.82 139.32-7.54 139.72-8.45 140.12-9.35 140.36-10.31 140.59-11.28 140.69-12.21 140.78-13.13 140.78-13.89L140.78-13.89Q140.78-15.16 140.4-16.38 140.03-17.6 139.29-18.53 138.56-19.46 137.48-20.03 136.39-20.61 134.97-20.61L134.97-20.61Q133.51-20.61 132.51-19.74 131.51-18.87 130.91-17.6 130.31-16.33 130.04-14.93 129.77-13.53 129.77-12.45ZM170.69-17.04L170.71-17.41Q170.47-17.97 170.04-18.55 169.61-19.14 169.05-19.63 168.49-20.12 167.83-20.42 167.17-20.73 166.44-20.73L166.44-20.73Q165.44-20.73 164.56-19.9 163.68-19.07 163.02-17.69 162.36-16.31 161.98-14.54 161.61-12.77 161.61-10.86L161.61-10.86Q161.61-9.69 161.81-8.65 162.02-7.62 162.46-6.84 162.9-6.05 163.6-5.59 164.29-5.13 165.27-5.13L165.27-5.13Q166.73-5.13 167.95-6.04 169.17-6.96 170.03-8.42L170.03-8.42Q170.05-8.94 170.1-9.64 170.15-10.35 170.22-11.36 170.3-12.38 170.41-13.76 170.52-15.14 170.69-17.04L170.69-17.04ZM181.31-25.71L178.79-2.66Q178.55-0.24 177.69 1.86 176.84 3.96 175.53 5.7 174.23 7.45 172.56 8.83 170.88 10.21 169.02 11.16 167.15 12.11 165.17 12.61 163.19 13.11 161.26 13.11L161.26 13.11Q160.24 13.11 159.16 13.04 158.09 12.96 157.07 12.76 156.04 12.55 155.11 12.17 154.18 11.79 153.45 11.21L153.45 11.21 153.45 11.18Q153.45 11.06 153.63 10.33 153.82 9.59 154.07 8.61 154.33 7.62 154.61 6.57 154.89 5.52 155.09 4.76L155.09 4.76Q155.19 4.42 155.28 4.3 155.38 4.17 155.5 4.17L155.5 4.17Q155.65 4.17 155.67 4.2L155.67 4.2Q156.38 4.66 157 4.97 157.63 5.27 158.32 5.46 159.02 5.64 159.85 5.71 160.68 5.79 161.78 5.79L161.78 5.79Q163.49 5.79 164.8 5.13 166.12 4.47 167.07 3.42 168.03 2.37 168.6 1.11 169.17-0.15 169.39-1.37L169.39-1.37Q167.64-0.2 165.83 0.54 164.02 1.27 162.19 1.27L162.19 1.27Q159.68 1.27 157.85 0.26 156.02-0.76 154.82-2.47 153.62-4.17 153.05-6.38 152.48-8.59 152.48-11.01L152.48-11.01Q152.48-12.92 152.83-14.86 153.18-16.8 153.88-18.6 154.57-20.41 155.6-21.98 156.63-23.56 157.97-24.73 159.31-25.9 160.95-26.57 162.58-27.25 164.51-27.25L164.51-27.25Q166.61-27.25 168.41-26.32 170.2-25.39 171.66-24.02L171.66-24.02Q171.71-24.46 171.74-24.72 171.76-24.98 171.86-25.12 171.96-25.27 172.19-25.34 172.42-25.42 172.86-25.51L172.86-25.51Q173.13-25.56 173.84-25.72 174.55-25.88 175.52-26.1 176.5-26.32 177.67-26.56 178.84-26.81 180.04-27.08L180.04-27.08Q180.33-27.15 180.58-27.15L180.58-27.15Q181.33-27.15 181.33-26.17L181.33-26.17Q181.33-26.05 181.33-25.94 181.33-25.83 181.31-25.71L181.31-25.71Z" fill="#8c8158" data-fill-palette-color="primary"></path></g></svg></g></svg></g></svg></g></svg></g><g transform="matrix(1,0,0,1,204.86446128368019,0)"><svg viewBox="0 0 82.39039223192397 75.30916100766703" height="75.30916100766703" width="82.39039223192397"><g><svg xmlns="http://www.w3.org/2000/svg" xmlns:xlink="http://www.w3.org/1999/xlink" version="1.1" x="0" y="0" viewBox="4.152719102543414 6.800554058401743 92.51543283410939 84.56398177333026" enable-background="new 0 0 100 100" xml:space="preserve" height="75.30916100766703" width="82.39039223192397" class="icon-icon-0" data-fill-palette-color="accent" id="icon-0"><g fill="#8c975a" data-fill-palette-color="accent"><path d="M91.794 56.949c-6.957-2.348-18.373-6.155-18.373-14.735 0-6.068 7.766-13.308 10.819-21.077 3.077-7.834-4.942-10.491-10.726-4.57-3.917 4.01-11.005 11.938-18.371 10.818-4.207-0.639-11.022-7.375-16.788-14.642-8.952-11.284-15.48-4.756-10.352 5.129 3.917 7.548 5.782 17.253 4.01 20.797-1.772 3.544-4.596 8.36-20.33 11.844-13.056 2.89-6.435 10.724-0.28 9.792 1.956-0.297 22.289-1.746 26.112 2.983 5.503 6.809 5.436 14.159 5.129 17.814-1.119 13.335 10.352 12.682 10.819 3.729 0.087-1.688 3.075-16.973 9.418-19.49 6.341-2.518 9.801-3.342 24.526 0.279C98.789 68.419 98.975 59.373 91.794 56.949zM8.332 56.837c-0.752 0-1.341-0.605-1.341-1.338 0-0.734 0.588-1.333 1.341-1.333 0.735 0 1.33 0.599 1.33 1.333C9.662 56.232 9.067 56.837 8.332 56.837zM13.088 56.463c-0.752 0-1.341-0.603-1.341-1.337s0.588-1.334 1.341-1.334c0.735 0 1.33 0.6 1.33 1.334S13.823 56.463 13.088 56.463zM20.503 54.925c-0.937 0-1.669-0.75-1.669-1.664 0-0.913 0.732-1.658 1.669-1.658 0.915 0 1.655 0.745 1.655 1.658C22.158 54.175 21.418 54.925 20.503 54.925zM24.325 53.292c-0.595 0-1.06-0.477-1.06-1.056 0-0.581 0.465-1.053 1.06-1.053 0.581 0 1.051 0.472 1.051 1.053C25.375 52.816 24.906 53.292 24.325 53.292zM32.177 43.765c0.208 0 0.376 0.183 0.376 0.404 0 0.224-0.168 0.407-0.376 0.407-0.21 0-0.376-0.183-0.376-0.407C31.801 43.948 31.967 43.765 32.177 43.765zM31.338 46.898c0.143 0 0.259 0.125 0.259 0.277 0 0.154-0.116 0.28-0.259 0.28-0.145 0-0.258-0.125-0.258-0.28C31.08 47.024 31.193 46.898 31.338 46.898zM31.133 51.94c-0.778 0-1.387-0.623-1.387-1.381 0-0.762 0.608-1.379 1.387-1.379 0.761 0 1.376 0.617 1.376 1.379C32.509 51.317 31.894 51.94 31.133 51.94zM32.387 55.362c-0.144 0-0.258-0.127-0.258-0.279 0-0.153 0.114-0.277 0.258-0.277 0.142 0 0.258 0.124 0.258 0.277C32.645 55.235 32.529 55.362 32.387 55.362zM70.909 24.978c0.734 0 1.329 0.596 1.329 1.331 0 0.733-0.595 1.334-1.329 1.334-0.752 0-1.34-0.601-1.34-1.334C69.569 25.573 70.157 24.978 70.909 24.978zM67.332 40.742c0 0.331-0.268 0.602-0.6 0.602-0.339 0-0.604-0.271-0.604-0.602s0.266-0.6 0.604-0.6C67.064 40.142 67.332 40.411 67.332 40.742zM66.982 48.646c0 0.331-0.268 0.602-0.601 0.602-0.338 0-0.604-0.271-0.604-0.602s0.266-0.6 0.604-0.6C66.714 48.046 66.982 48.315 66.982 48.646zM66.843 46.463c0-0.222 0.166-0.404 0.376-0.404 0.207 0 0.376 0.183 0.376 0.404 0 0.224-0.169 0.407-0.376 0.407C67.009 46.87 66.843 46.688 66.843 46.463zM65.008 36.825c0-0.331 0.266-0.6 0.604-0.6 0.332 0 0.6 0.269 0.6 0.6s-0.268 0.602-0.6 0.602C65.274 37.427 65.008 37.156 65.008 36.825zM65.304 42.421c0 0.331-0.268 0.602-0.6 0.602-0.339 0-0.604-0.271-0.604-0.602s0.266-0.6 0.604-0.6C65.037 41.821 65.304 42.09 65.304 42.421zM65.165 34.307c0-0.222 0.166-0.404 0.376-0.404 0.207 0 0.376 0.183 0.376 0.404 0 0.224-0.169 0.407-0.376 0.407C65.331 34.714 65.165 34.531 65.165 34.307zM65.64 29.873c0.761 0 1.376 0.618 1.376 1.379 0 0.758-0.615 1.381-1.376 1.381-0.778 0-1.388-0.623-1.388-1.381C64.252 30.491 64.862 29.873 65.64 29.873zM64.564 38.988c0.333 0 0.601 0.269 0.601 0.6 0 0.332-0.268 0.603-0.601 0.603-0.339 0-0.604-0.271-0.604-0.603C63.96 39.257 64.225 38.988 64.564 38.988zM62.562 32.579c0.761 0 1.376 0.617 1.376 1.379 0 0.759-0.615 1.381-1.376 1.381-0.778 0-1.387-0.623-1.387-1.381C61.175 33.196 61.784 32.579 62.562 32.579zM61.765 43.955c-0.405 0-0.721-0.323-0.721-0.718 0-0.396 0.315-0.717 0.721-0.717 0.396 0 0.715 0.32 0.715 0.717C62.48 43.632 62.161 43.955 61.765 43.955zM62.458 45.673c0 0.51-0.413 0.928-0.925 0.928-0.522 0-0.931-0.418-0.931-0.928 0-0.512 0.408-0.926 0.931-0.926C62.045 44.748 62.458 45.162 62.458 45.673zM62.454 41.239c-0.437 0-0.78-0.35-0.78-0.777s0.344-0.775 0.78-0.775c0.429 0 0.774 0.348 0.774 0.775S62.882 41.239 62.454 41.239zM63.13 38.337c-0.339 0-0.604-0.271-0.604-0.603 0-0.331 0.266-0.6 0.604-0.6 0.332 0 0.601 0.269 0.601 0.6C63.731 38.066 63.462 38.337 63.13 38.337zM60.924 36.546c0.207 0 0.376 0.183 0.376 0.405 0 0.224-0.169 0.406-0.376 0.406-0.21 0-0.376-0.182-0.376-0.406C60.548 36.729 60.714 36.546 60.924 36.546zM58.616 30.671c0.144 0 0.259 0.125 0.259 0.277 0 0.154-0.115 0.28-0.259 0.28-0.145 0-0.258-0.125-0.258-0.28C58.358 30.797 58.471 30.671 58.616 30.671zM58.969 33.591c0.396 0 0.715 0.321 0.715 0.717 0 0.395-0.319 0.718-0.715 0.718-0.406 0-0.722-0.323-0.722-0.718C58.248 33.912 58.563 33.591 58.969 33.591zM56.377 32.154c0.208 0 0.376 0.183 0.376 0.404 0 0.224-0.168 0.407-0.376 0.407-0.21 0-0.376-0.183-0.376-0.407C56.001 32.337 56.167 32.154 56.377 32.154zM56.589 34.092c0.333 0 0.601 0.269 0.601 0.6s-0.268 0.603-0.601 0.603c-0.339 0-0.604-0.271-0.604-0.603S56.25 34.092 56.589 34.092zM57.949 36.308c1.301 0 2.353 1.056 2.353 2.357 0 1.297-1.052 2.362-2.353 2.362-1.331 0-2.371-1.064-2.371-2.362C55.578 37.364 56.618 36.308 57.949 36.308zM56.964 44.683c0-0.638 0.515-1.16 1.166-1.16 0.642 0 1.157 0.521 1.157 1.16s-0.516 1.162-1.157 1.162C57.479 45.845 56.964 45.321 56.964 44.683zM57.935 48.017c0 0.395-0.319 0.718-0.715 0.718-0.405 0-0.722-0.323-0.722-0.718 0-0.396 0.316-0.717 0.722-0.717C57.616 47.3 57.935 47.621 57.935 48.017zM59.074 42.953c-0.339 0-0.604-0.271-0.604-0.602 0-0.332 0.266-0.6 0.604-0.6 0.332 0 0.6 0.269 0.6 0.6C59.673 42.682 59.406 42.953 59.074 42.953zM55.511 41.512c0 0.331-0.268 0.602-0.601 0.602-0.339 0-0.604-0.271-0.604-0.602 0-0.332 0.265-0.6 0.604-0.6C55.244 40.912 55.511 41.18 55.511 41.512zM54.536 43.785c0.445 0 0.805 0.361 0.805 0.806s-0.359 0.805-0.805 0.805c-0.443 0-0.805-0.361-0.805-0.805S54.092 43.785 54.536 43.785zM53.929 38.785c0-0.207 0.167-0.374 0.376-0.374 0.208 0 0.375 0.167 0.375 0.374s-0.167 0.376-0.375 0.376C54.096 39.161 53.929 38.991 53.929 38.785zM53.792 46.059c0.888 0 1.605 0.722 1.605 1.61 0 0.888-0.718 1.609-1.605 1.609s-1.608-0.722-1.608-1.609C52.183 46.78 52.904 46.059 53.792 46.059zM54.141 33.498c0.333 0 0.601 0.269 0.601 0.6 0 0.331-0.268 0.602-0.601 0.602-0.338 0-0.604-0.271-0.604-0.602C53.538 33.766 53.803 33.498 54.141 33.498zM53.862 36.016c0.332 0 0.6 0.269 0.6 0.6 0 0.331-0.268 0.602-0.6 0.602-0.339 0-0.604-0.271-0.604-0.602C53.257 36.284 53.523 36.016 53.862 36.016zM52.018 44.207c-0.637 0-1.155-0.518-1.155-1.155s0.519-1.155 1.155-1.155c0.64 0 1.154 0.517 1.154 1.155S52.658 44.207 52.018 44.207zM47.903 45.709c0-0.901 0.731-1.632 1.632-1.632 0.902 0 1.631 0.731 1.631 1.632 0 0.901-0.729 1.632-1.631 1.632C48.634 47.341 47.903 46.61 47.903 45.709zM49.129 48.436c0 0.224-0.167 0.407-0.375 0.407-0.21 0-0.376-0.183-0.376-0.407 0-0.222 0.166-0.404 0.376-0.404C48.962 48.032 49.129 48.214 49.129 48.436zM50.057 41.022c0-0.207 0.166-0.375 0.377-0.375 0.208 0 0.375 0.168 0.375 0.375s-0.167 0.376-0.375 0.376C50.223 41.398 50.057 41.229 50.057 41.022zM50.829 48.751c0.64 0 1.154 0.517 1.154 1.155 0 0.638-0.515 1.155-1.154 1.155-0.637 0-1.155-0.517-1.155-1.155C49.674 49.268 50.192 48.751 50.829 48.751zM50.868 39.133c0-0.581 0.468-1.053 1.061-1.053 0.583 0 1.053 0.473 1.053 1.053 0 0.582-0.47 1.057-1.053 1.057C51.335 40.19 50.868 39.714 50.868 39.133zM52.463 30.63c0.332 0 0.6 0.269 0.6 0.6 0 0.331-0.268 0.602-0.6 0.602-0.339 0-0.604-0.271-0.604-0.602C51.859 30.898 52.125 30.63 52.463 30.63zM50.959 33.253c0.332 0 0.6 0.269 0.6 0.6 0 0.332-0.268 0.603-0.6 0.603-0.339 0-0.604-0.271-0.604-0.603C50.355 33.521 50.621 33.253 50.959 33.253zM49.875 36.225c0.333 0 0.6 0.269 0.6 0.6s-0.268 0.602-0.6 0.602c-0.339 0-0.604-0.271-0.604-0.602S49.536 36.225 49.875 36.225zM48.476 41.834c-0.339 0-0.604-0.271-0.604-0.602s0.266-0.6 0.604-0.6c0.333 0 0.6 0.269 0.6 0.6S48.809 41.834 48.476 41.834zM48.684 31.035c0.208 0 0.376 0.183 0.376 0.404 0 0.224-0.168 0.407-0.376 0.407-0.209 0-0.375-0.183-0.375-0.407C48.308 31.218 48.474 31.035 48.684 31.035zM47.637 33.078c0.333 0 0.6 0.269 0.6 0.6s-0.268 0.602-0.6 0.602c-0.339 0-0.604-0.271-0.604-0.602S47.298 33.078 47.637 33.078zM45.606 29.217c0.208 0 0.376 0.183 0.376 0.404 0 0.224-0.168 0.407-0.376 0.407-0.21 0-0.376-0.183-0.376-0.407C45.23 29.399 45.396 29.217 45.606 29.217zM46.004 34.446c0 0.154-0.116 0.28-0.258 0.28-0.144 0-0.258-0.126-0.258-0.28 0-0.152 0.114-0.278 0.258-0.278C45.888 34.168 46.004 34.294 46.004 34.446zM45.779 35.608c1.301 0 2.352 1.056 2.352 2.357 0 1.297-1.051 2.361-2.352 2.361-1.331 0-2.372-1.064-2.372-2.361C43.407 36.664 44.448 35.608 45.779 35.608zM47.87 43.216c0 0.207-0.167 0.376-0.375 0.376-0.21 0-0.376-0.169-0.376-0.376s0.166-0.374 0.376-0.374C47.703 42.842 47.87 43.009 47.87 43.216zM45.26 44.795c-0.613 0-1.098-0.491-1.098-1.092 0-0.601 0.484-1.089 1.098-1.089 0.603 0 1.087 0.488 1.087 1.089C46.348 44.304 45.863 44.795 45.26 44.795zM45.911 52.798c0 0.208-0.167 0.376-0.375 0.376-0.209 0-0.376-0.168-0.376-0.376 0-0.206 0.167-0.374 0.376-0.374C45.744 52.424 45.911 52.592 45.911 52.798zM43.972 41.582c0-0.207 0.166-0.375 0.376-0.375 0.208 0 0.375 0.168 0.375 0.375s-0.167 0.376-0.375 0.376C44.137 41.958 43.972 41.788 43.972 41.582zM46.518 46.577c0.333 0 0.6 0.269 0.6 0.6 0 0.331-0.268 0.602-0.6 0.602-0.339 0-0.604-0.271-0.604-0.602C45.914 46.846 46.179 46.577 46.518 46.577zM44.587 33.025c0 0.758-0.616 1.381-1.376 1.381-0.778 0-1.387-0.623-1.387-1.381 0-0.762 0.609-1.379 1.387-1.379C43.972 31.646 44.587 32.264 44.587 33.025zM43.271 40.672c0 0.331-0.268 0.602-0.6 0.602-0.339 0-0.604-0.271-0.604-0.602s0.266-0.6 0.604-0.6C43.003 40.072 43.271 40.341 43.271 40.672zM40.013 39.653c0.332 0 0.6 0.269 0.6 0.6s-0.268 0.603-0.6 0.603c-0.339 0-0.604-0.271-0.604-0.603S39.674 39.653 40.013 39.653zM39.381 34.448c0-0.222 0.166-0.404 0.376-0.404 0.208 0 0.375 0.182 0.375 0.404 0 0.225-0.167 0.407-0.375 0.407C39.547 34.855 39.381 34.673 39.381 34.448zM40.318 37.875c0-0.331 0.266-0.6 0.604-0.6 0.332 0 0.6 0.269 0.6 0.6s-0.268 0.602-0.6 0.602C40.583 38.477 40.318 38.206 40.318 37.875zM41.412 42.835c0.333 0 0.6 0.269 0.6 0.6s-0.268 0.602-0.6 0.602c-0.338 0-0.604-0.271-0.604-0.602S41.073 42.835 41.412 42.835zM41.299 28.056c0.761 0 1.376 0.617 1.376 1.379 0 0.759-0.615 1.381-1.376 1.381-0.778 0-1.387-0.623-1.387-1.381C39.912 28.673 40.521 28.056 41.299 28.056zM38.64 23.859c0.658 0 1.19 0.534 1.19 1.192 0 0.656-0.532 1.194-1.19 1.194-0.673 0-1.199-0.539-1.199-1.194C37.441 24.394 37.967 23.859 38.64 23.859zM38.614 44.072c-0.339 0-0.604-0.271-0.604-0.602 0-0.332 0.266-0.6 0.604-0.6 0.332 0 0.6 0.269 0.6 0.6C39.214 43.801 38.946 44.072 38.614 44.072zM38.917 49.766c0 0.207-0.167 0.376-0.375 0.376-0.21 0-0.376-0.169-0.376-0.376s0.166-0.375 0.376-0.375C38.75 49.391 38.917 49.559 38.917 49.766zM36.725 42.256c0.208 0 0.374 0.168 0.374 0.375s-0.167 0.376-0.374 0.376c-0.211 0-0.376-0.169-0.376-0.376S36.514 42.256 36.725 42.256zM36.256 33.818c0-0.152 0.113-0.278 0.258-0.278 0.143 0 0.259 0.126 0.259 0.278 0 0.154-0.116 0.28-0.259 0.28C36.369 34.098 36.256 33.972 36.256 33.818zM36.75 40.393c0-0.331 0.266-0.6 0.604-0.6 0.333 0 0.6 0.269 0.6 0.6s-0.268 0.602-0.6 0.602C37.016 40.995 36.75 40.724 36.75 40.393zM37.59 37.175c0-0.332 0.266-0.6 0.604-0.6 0.333 0 0.6 0.269 0.6 0.6 0 0.331-0.268 0.602-0.6 0.602C37.855 37.777 37.59 37.506 37.59 37.175zM36.357 18.825c0.836 0 1.514 0.679 1.514 1.518 0 0.835-0.678 1.521-1.514 1.521-0.857 0-1.527-0.686-1.527-1.521C34.83 19.504 35.5 18.825 36.357 18.825zM34.907 43.513c-0.339 0-0.604-0.271-0.604-0.602 0-0.332 0.266-0.6 0.604-0.6 0.332 0 0.6 0.269 0.6 0.6C35.507 43.242 35.239 43.513 34.907 43.513zM35 45.988c0 0.207-0.167 0.376-0.375 0.376-0.211 0-0.376-0.169-0.376-0.376s0.166-0.374 0.376-0.374C34.834 45.614 35 45.781 35 45.988zM34.459 37.944c0-0.207 0.166-0.374 0.376-0.374 0.208 0 0.375 0.167 0.375 0.374s-0.167 0.376-0.375 0.376C34.625 38.32 34.459 38.151 34.459 37.944zM30.199 11.838c-0.384 0-0.685-0.307-0.685-0.682s0.301-0.679 0.685-0.679c0.375 0 0.678 0.305 0.678 0.679S30.573 11.838 30.199 11.838zM32.157 14.123c-0.384 0-0.685-0.307-0.685-0.682s0.301-0.679 0.685-0.679c0.375 0 0.678 0.305 0.678 0.679S32.532 14.123 32.157 14.123zM33.245 16.192c0-0.478 0.383-0.866 0.872-0.866 0.477 0 0.864 0.388 0.864 0.866 0 0.477-0.387 0.868-0.864 0.868C33.627 17.06 33.245 16.669 33.245 16.192zM34.555 54.075c-0.21 0-0.376-0.184-0.376-0.406 0-0.224 0.166-0.404 0.376-0.404 0.208 0 0.376 0.181 0.376 0.404C34.931 53.891 34.763 54.075 34.555 54.075zM35.518 50.774c-0.778 0-1.387-0.623-1.387-1.382 0-0.762 0.609-1.379 1.387-1.379 0.76 0 1.376 0.617 1.376 1.379C36.894 50.151 36.278 50.774 35.518 50.774zM37.003 58.717c-0.145 0-0.258-0.127-0.258-0.28 0-0.152 0.114-0.277 0.258-0.277 0.143 0 0.259 0.125 0.259 0.277C37.262 58.59 37.146 58.717 37.003 58.717zM37.215 46.66c-0.339 0-0.604-0.271-0.604-0.602 0-0.332 0.266-0.6 0.604-0.6 0.332 0 0.6 0.269 0.6 0.6C37.815 46.389 37.547 46.66 37.215 46.66zM38.404 55.753c-0.339 0-0.604-0.271-0.604-0.604 0-0.33 0.266-0.599 0.604-0.599 0.332 0 0.6 0.269 0.6 0.599C39.004 55.482 38.736 55.753 38.404 55.753zM38.936 45.568c0-0.207 0.166-0.375 0.376-0.375 0.208 0 0.374 0.168 0.374 0.375s-0.167 0.376-0.374 0.376C39.102 45.944 38.936 45.775 38.936 45.568zM39.871 62.006c-0.21 0-0.376-0.184-0.376-0.406s0.166-0.404 0.376-0.404c0.208 0 0.375 0.182 0.375 0.404S40.079 62.006 39.871 62.006zM39.803 53.305c-0.339 0-0.604-0.271-0.604-0.604 0-0.33 0.266-0.599 0.604-0.599 0.332 0 0.6 0.269 0.6 0.599C40.403 53.035 40.135 53.305 39.803 53.305zM40.144 47.712c0-1.302 1.041-2.357 2.372-2.357 1.302 0 2.352 1.055 2.352 2.357 0 1.297-1.05 2.361-2.352 2.361C41.184 50.073 40.144 49.009 40.144 47.712zM42.274 54.17c0 0.208-0.167 0.376-0.375 0.376-0.21 0-0.376-0.168-0.376-0.376 0-0.205 0.166-0.373 0.376-0.373C42.107 53.797 42.274 53.965 42.274 54.17zM41.55 50.899c0.208 0 0.375 0.183 0.375 0.404 0 0.224-0.167 0.407-0.375 0.407-0.21 0-0.376-0.183-0.376-0.407C41.174 51.082 41.34 50.899 41.55 50.899zM41.227 55.99c0-0.33 0.266-0.6 0.604-0.6 0.332 0 0.6 0.27 0.6 0.6 0 0.332-0.268 0.603-0.6 0.603C41.493 56.592 41.227 56.322 41.227 55.99zM42.389 60.44c-0.209 0-0.376-0.184-0.376-0.407 0-0.223 0.167-0.404 0.376-0.404 0.208 0 0.375 0.182 0.375 0.404C42.764 60.256 42.597 60.44 42.389 60.44zM42.766 52.422c0-0.331 0.265-0.6 0.604-0.6 0.333 0 0.6 0.269 0.6 0.6 0 0.332-0.268 0.604-0.6 0.604C43.031 53.026 42.766 52.754 42.766 52.422zM43.998 57.249c-0.144 0-0.258-0.125-0.258-0.28 0-0.15 0.114-0.277 0.258-0.277 0.143 0 0.258 0.127 0.258 0.277C44.256 57.124 44.14 57.249 43.998 57.249zM44.531 50.8c0-0.222 0.166-0.404 0.376-0.404 0.208 0 0.375 0.183 0.375 0.404 0 0.224-0.167 0.407-0.375 0.407C44.697 51.207 44.531 51.024 44.531 50.8zM45.398 54.341c0.333 0 0.6 0.269 0.6 0.599 0 0.333-0.268 0.604-0.6 0.604-0.338 0-0.604-0.271-0.604-0.604C44.794 54.61 45.06 54.341 45.398 54.341zM46.068 58.578c0 0.332-0.268 0.603-0.6 0.603-0.339 0-0.604-0.271-0.604-0.603 0-0.33 0.266-0.6 0.604-0.6C45.801 57.978 46.068 58.248 46.068 58.578zM45.187 65.069c-0.21 0-0.376-0.182-0.376-0.406 0-0.221 0.166-0.404 0.376-0.404 0.208 0 0.376 0.184 0.376 0.404C45.562 64.887 45.394 65.069 45.187 65.069zM45.851 62.529c-0.144 0-0.258-0.124-0.258-0.279 0-0.151 0.114-0.277 0.258-0.277 0.143 0 0.258 0.126 0.258 0.277C46.109 62.405 45.994 62.529 45.851 62.529zM46.134 50.791c0-0.62 0.5-1.124 1.131-1.124 0.622 0 1.122 0.504 1.122 1.124 0 0.62-0.5 1.126-1.122 1.126C46.634 51.917 46.134 51.411 46.134 50.791zM48.195 59.124c-0.21 0-0.376-0.182-0.376-0.406 0-0.221 0.166-0.404 0.376-0.404 0.208 0 0.375 0.184 0.375 0.404C48.57 58.942 48.402 59.124 48.195 59.124zM49.785 65.171c0.761 0 1.376 0.619 1.376 1.38 0 0.758-0.615 1.381-1.376 1.381-0.778 0-1.387-0.623-1.387-1.381C48.398 65.791 49.007 65.171 49.785 65.171zM48.104 85.792c-0.436 0-0.776-0.351-0.776-0.776s0.34-0.771 0.776-0.771c0.426 0 0.771 0.346 0.771 0.771S48.53 85.792 48.104 85.792zM48.757 79.962c-0.646 0-1.151-0.516-1.151-1.147s0.505-1.146 1.151-1.146c0.632 0 1.143 0.514 1.143 1.146S49.389 79.962 48.757 79.962zM49.225 74.972c-0.751 0-1.338-0.601-1.338-1.333 0-0.736 0.587-1.333 1.338-1.333 0.735 0 1.329 0.597 1.329 1.333C50.554 74.372 49.96 74.972 49.225 74.972zM50.297 70.964c-0.568 0-1.013-0.455-1.013-1.008 0-0.556 0.444-1.008 1.013-1.008 0.555 0 1.003 0.452 1.003 1.008C51.3 70.509 50.852 70.964 50.297 70.964zM49.972 63.037c-0.778 0-1.387-0.623-1.387-1.382 0-0.761 0.609-1.379 1.387-1.379 0.76 0 1.376 0.618 1.376 1.379C51.348 62.414 50.732 63.037 49.972 63.037zM51.971 59.194c-0.21 0-0.376-0.182-0.376-0.406 0-0.221 0.166-0.404 0.376-0.404 0.208 0 0.376 0.184 0.376 0.404C52.347 59.012 52.179 59.194 51.971 59.194zM50.489 57.674c-1.332 0-2.372-1.064-2.372-2.362 0-1.301 1.041-2.356 2.372-2.356 1.3 0 2.352 1.056 2.352 2.356C52.841 56.61 51.79 57.674 50.489 57.674zM53.72 64.385c-0.145 0-0.259-0.127-0.259-0.28s0.114-0.277 0.259-0.277c0.142 0 0.258 0.124 0.258 0.277S53.862 64.385 53.72 64.385zM53.467 58.647c0-0.33 0.266-0.599 0.604-0.599 0.332 0 0.6 0.269 0.6 0.599 0 0.333-0.268 0.604-0.6 0.604C53.733 59.25 53.467 58.98 53.467 58.647zM54.467 61.587c-0.145 0-0.258-0.127-0.258-0.28 0-0.152 0.113-0.277 0.258-0.277 0.144 0 0.259 0.125 0.259 0.277C54.726 61.46 54.611 61.587 54.467 61.587zM54.771 55.683c-0.339 0-0.604-0.271-0.604-0.603 0-0.33 0.266-0.6 0.604-0.6 0.332 0 0.601 0.27 0.601 0.6C55.372 55.413 55.103 55.683 54.771 55.683zM54.914 52.816c-0.612 0-1.097-0.492-1.097-1.093s0.484-1.089 1.097-1.089c0.602 0 1.087 0.489 1.087 1.089S55.515 52.816 54.914 52.816zM56.072 42.771c0-0.222 0.166-0.404 0.376-0.404 0.207 0 0.376 0.183 0.376 0.404 0 0.224-0.169 0.407-0.376 0.407C56.238 43.177 56.072 42.995 56.072 42.771zM57.08 60.16c-0.339 0-0.604-0.271-0.604-0.604 0-0.33 0.266-0.599 0.604-0.599 0.332 0 0.6 0.269 0.6 0.599C57.679 59.889 57.412 60.16 57.08 60.16zM57.149 57.152c-0.339 0-0.604-0.271-0.604-0.603 0-0.33 0.266-0.6 0.604-0.6 0.332 0 0.601 0.27 0.601 0.6C57.75 56.881 57.481 57.152 57.149 57.152zM58.056 54.453c-0.339 0-0.604-0.271-0.604-0.604 0-0.329 0.266-0.599 0.604-0.599 0.332 0 0.601 0.27 0.601 0.599C58.657 54.182 58.388 54.453 58.056 54.453zM59.499 57.877c0-0.221 0.166-0.404 0.376-0.404 0.208 0 0.376 0.184 0.376 0.404 0 0.226-0.168 0.407-0.376 0.407C59.665 58.285 59.499 58.103 59.499 57.877zM60.294 61.992c-0.21 0-0.376-0.182-0.376-0.407 0-0.221 0.166-0.404 0.376-0.404 0.208 0 0.376 0.184 0.376 0.404C60.67 61.81 60.502 61.992 60.294 61.992zM60.926 55.404c-0.339 0-0.604-0.271-0.604-0.604 0-0.33 0.266-0.599 0.604-0.599 0.332 0 0.6 0.269 0.6 0.599C61.526 55.132 61.258 55.404 60.926 55.404zM60.701 52.311c-1.331 0-2.371-1.064-2.371-2.361 0-1.302 1.04-2.357 2.371-2.357 1.302 0 2.353 1.055 2.353 2.357C63.053 51.247 62.002 52.311 60.701 52.311zM63.163 54.158c-0.21 0-0.376-0.182-0.376-0.406 0-0.221 0.166-0.404 0.376-0.404 0.207 0 0.376 0.184 0.376 0.404C63.539 53.976 63.37 54.158 63.163 54.158zM64.001 57.668c-0.145 0-0.258-0.125-0.258-0.28 0-0.15 0.113-0.277 0.258-0.277 0.143 0 0.258 0.127 0.258 0.277C64.259 57.543 64.144 57.668 64.001 57.668zM63.725 48.094c-0.339 0-0.604-0.271-0.604-0.602s0.266-0.6 0.604-0.6c0.332 0 0.6 0.269 0.6 0.6S64.057 48.094 63.725 48.094zM64.588 45.428c0-0.331 0.266-0.6 0.604-0.6 0.332 0 0.6 0.269 0.6 0.6 0 0.332-0.268 0.603-0.6 0.603C64.854 46.031 64.588 45.76 64.588 45.428zM66.432 53.99c-0.778 0-1.387-0.623-1.387-1.382 0-0.762 0.608-1.378 1.387-1.378 0.761 0 1.376 0.617 1.376 1.378C67.808 53.367 67.193 53.99 66.432 53.99zM67.361 44.282c-0.339 0-0.604-0.271-0.604-0.603s0.266-0.6 0.604-0.6c0.332 0 0.601 0.269 0.601 0.6S67.693 44.282 67.361 44.282zM67.987 37.944c-0.144 0-0.258-0.125-0.258-0.28 0-0.152 0.114-0.277 0.258-0.277s0.26 0.125 0.26 0.277C68.247 37.819 68.13 37.944 67.987 37.944zM67.47 29.061c0-0.582 0.465-1.053 1.06-1.053 0.58 0 1.05 0.471 1.05 1.053 0 0.579-0.47 1.055-1.05 1.055C67.935 30.115 67.47 29.64 67.47 29.061zM69.317 41.737c0.208 0 0.376 0.183 0.376 0.404 0 0.224-0.168 0.406-0.376 0.406-0.209 0-0.376-0.182-0.376-0.406C68.941 41.919 69.108 41.737 69.317 41.737zM69.01 46.829c0-0.152 0.113-0.278 0.258-0.278 0.144 0 0.259 0.125 0.259 0.278 0 0.154-0.115 0.28-0.259 0.28C69.124 47.108 69.01 46.982 69.01 46.829zM69.292 50.395c0-0.222 0.166-0.404 0.375-0.404 0.208 0 0.376 0.182 0.376 0.404 0 0.224-0.168 0.406-0.376 0.406C69.458 50.801 69.292 50.619 69.292 50.395zM70.955 55.436c-0.778 0-1.387-0.623-1.387-1.381 0-0.763 0.608-1.379 1.387-1.379 0.761 0 1.376 0.616 1.376 1.379C72.331 54.813 71.715 55.436 70.955 55.436zM80.699 16.398c0.503 0 0.91 0.409 0.91 0.913 0 0.502-0.407 0.915-0.91 0.915-0.518 0-0.919-0.413-0.919-0.915C79.78 16.807 80.181 16.398 80.699 16.398zM76.083 20.315c0.709 0 1.283 0.575 1.283 1.285 0 0.708-0.574 1.289-1.283 1.289-0.727 0-1.294-0.581-1.294-1.289C74.79 20.891 75.357 20.315 76.083 20.315zM72.692 24.212c0-0.427 0.341-0.772 0.778-0.772 0.426 0 0.771 0.346 0.771 0.772 0 0.426-0.346 0.775-0.771 0.775C73.033 24.987 72.692 24.638 72.692 24.212zM74.638 56.647c-0.673 0-1.199-0.537-1.199-1.193 0-0.66 0.526-1.193 1.199-1.193 0.658 0 1.19 0.533 1.19 1.193C75.829 56.11 75.296 56.647 74.638 56.647zM78.229 57.769c-0.621 0-1.106-0.497-1.106-1.103 0-0.607 0.485-1.099 1.106-1.099 0.605 0 1.096 0.491 1.096 1.099C79.325 57.272 78.834 57.769 78.229 57.769zM81.68 59.958c-0.778 0-1.387-0.623-1.387-1.381 0-0.763 0.608-1.38 1.387-1.38 0.759 0 1.375 0.617 1.375 1.38C83.055 59.335 82.439 59.958 81.68 59.958zM86.81 61.729c-0.778 0-1.387-0.62-1.387-1.379 0-0.763 0.608-1.379 1.387-1.379 0.76 0 1.375 0.616 1.375 1.379C88.185 61.109 87.57 61.729 86.81 61.729zM90.21 62.756c-0.489 0-0.872-0.391-0.872-0.867 0-0.481 0.383-0.868 0.872-0.868 0.478 0 0.865 0.387 0.865 0.868C91.076 62.366 90.688 62.756 90.21 62.756z" fill="#8c975a" data-fill-palette-color="accent"></path></g></svg></g></svg></g></svg></g></svg></g></svg></g></svg></g><defs></defs></svg><rect width="320" height="360" fill="none" stroke="none" visibility="hidden"></rect></g></svg></g></svg>